<svg width="92" height="24" viewBox="0 0 92 24" fill="none" xmlns="http://www.w3.org/2000/svg">
<path d="M3.33329 16.6667H12.6666V10.4093L9.59129 7.33333H3.33329V16.6667ZM2.66663 17.3333V6.66667H9.85929L13.3333 10.1407V17.3333H2.66663ZM4.99996 14.6667H11V14H4.99996V14.6667ZM4.99996 12.3333H11V11.6667H4.99996V12.3333ZM4.99996 10H8.81996V9.33333H4.99996V10Z" fill="#313131"/>
<path d="M28.416 8.048V9.184H26.736V18H25.504V9.184H23.84V8.048H25.312C25.1413 7.84533 24.9653 7.632 24.784 7.408C24.6133 7.184 24.4587 6.96 24.32 6.736C24.6827 6.10667 25.072 5.536 25.488 5.024C25.904 4.50133 26.3947 4.09067 26.96 3.792C27.5253 3.48267 28.208 3.328 29.008 3.328C29.5733 3.328 30.112 3.39733 30.624 3.536C31.1467 3.67467 31.6587 3.87733 32.16 4.144C32.6613 4.4 33.168 4.71467 33.68 5.088C34.192 5.45067 34.7253 5.856 35.28 6.304L34.608 7.168C33.872 6.57067 33.2053 6.07467 32.608 5.68C32.0213 5.28533 31.456 4.992 30.912 4.8C30.3787 4.59733 29.808 4.496 29.2 4.496C28.6133 4.496 28.1013 4.59733 27.664 4.8C27.2373 5.00267 26.864 5.28533 26.544 5.648C26.2347 6.01067 25.952 6.432 25.696 6.912C25.7813 7.072 25.8987 7.248 26.048 7.44C26.1973 7.632 26.368 7.83467 26.56 8.048H28.416ZM39.802 8.048V9.184H33.946V12.048C33.946 12.3573 33.994 12.5867 34.09 12.736C34.186 12.8747 34.3353 12.944 34.538 12.944C34.7407 12.944 34.9487 12.88 35.162 12.752C35.386 12.624 35.626 12.4213 35.882 12.144C36.138 11.8667 36.4153 11.5093 36.714 11.072L37.674 10.928C38.0153 11.4293 38.2767 11.9467 38.458 12.48C38.65 13.0133 38.746 13.5467 38.746 14.08C38.746 14.752 38.5967 15.3547 38.298 15.888C38.01 16.4213 37.578 16.8427 37.002 17.152C36.4367 17.4613 35.7433 17.616 34.922 17.616C34.218 17.616 33.562 17.4933 32.954 17.248C32.346 17.0027 31.786 16.608 31.274 16.064C30.762 15.5093 30.2927 14.784 29.866 13.888C29.4393 12.9813 29.0553 11.872 28.714 10.56L29.93 10.24C30.314 11.7227 30.7353 12.9173 31.194 13.824C31.6633 14.72 32.1967 15.376 32.794 15.792C33.3913 16.1973 34.0793 16.4 34.858 16.4C35.7113 16.4 36.3673 16.1867 36.826 15.76C37.2953 15.3333 37.53 14.784 37.53 14.112C37.53 13.632 37.4607 13.2213 37.322 12.88C37.194 12.5387 37.0233 12.256 36.81 12.032L37.546 11.728C37.226 12.272 36.8953 12.72 36.554 13.072C36.2233 13.424 35.8873 13.6907 35.546 13.872C35.2153 14.0427 34.8847 14.128 34.554 14.128C34.3087 14.128 34.0793 14.096 33.866 14.032C33.6527 13.9573 33.4713 13.8507 33.322 13.712C33.1513 13.5627 33.0073 13.3547 32.89 13.088C32.7727 12.8107 32.714 12.352 32.714 11.712V9.184H28.09V8.048H39.802ZM47.7846 7.936C48.606 7.936 49.2406 8.144 49.6886 8.56C50.1473 8.976 50.3766 9.54667 50.3766 10.272C50.3766 10.784 50.2433 11.2427 49.9766 11.648C49.7206 12.0533 49.3633 12.4053 48.9046 12.704C48.446 13.0027 47.918 13.264 47.3206 13.488L46.8246 12.336C47.5393 12.1013 48.094 11.8293 48.4886 11.52C48.894 11.2 49.0966 10.7893 49.0966 10.288C49.0966 9.89333 48.9846 9.59467 48.7606 9.392C48.5366 9.17867 48.2113 9.072 47.7846 9.072C47.4006 9.072 47.038 9.136 46.6966 9.264C46.3553 9.392 46.0513 9.55733 45.7846 9.76C45.518 9.952 45.31 10.16 45.1606 10.384C45.0113 10.5973 44.9366 10.7947 44.9366 10.976C44.9366 11.1467 44.99 11.296 45.0966 11.424C45.2033 11.5413 45.4433 11.6267 45.8166 11.68L45.4806 12.864C44.8726 12.7467 44.414 12.5387 44.1046 12.24C43.806 11.9413 43.6566 11.5627 43.6566 11.104C43.6566 10.7413 43.7633 10.3787 43.9766 10.016C44.2006 9.64267 44.5046 9.30133 44.8886 8.992C45.2726 8.672 45.71 8.416 46.2006 8.224C46.702 8.032 47.23 7.936 47.7846 7.936ZM50.5366 14.4C50.5366 15.2853 50.206 15.9947 49.5446 16.528C48.894 17.0613 48.0086 17.328 46.8886 17.328C46.142 17.328 45.4326 17.1947 44.7606 16.928C44.0886 16.6613 43.4646 16.2347 42.8886 15.648C42.3233 15.0613 41.8006 14.2933 41.3206 13.344C40.8513 12.3947 40.4406 11.2427 40.0886 9.888L41.2886 9.536C41.7153 11.0613 42.19 12.3093 42.7126 13.28C43.246 14.2507 43.854 14.9653 44.5366 15.424C45.23 15.8827 46.0246 16.112 46.9206 16.112C47.5926 16.112 48.1473 15.9733 48.5846 15.696C49.022 15.408 49.2406 14.96 49.2406 14.352C49.2406 13.936 49.102 13.584 48.8246 13.296C48.558 13.008 48.2113 12.7733 47.7846 12.592L49.0646 12.032C49.534 12.288 49.8966 12.6187 50.1526 13.024C50.4086 13.4293 50.5366 13.888 50.5366 14.4ZM61.6291 8.048V9.184H59.9491V18H58.7171C58.2691 17.4027 57.7731 16.88 57.2291 16.432C56.6851 15.9733 56.0558 15.5893 55.3411 15.28C54.6265 14.9707 53.7785 14.7467 52.7971 14.608L52.2211 13.152C52.5518 12.928 52.8985 12.7147 53.2611 12.512C53.6238 12.3093 53.9918 12.112 54.3651 11.92C54.7491 11.728 55.1225 11.5467 55.4851 11.376C55.0798 11.0667 54.6105 10.7947 54.0771 10.56C53.5545 10.3147 52.9358 10.1173 52.2211 9.968L52.7171 8.88L52.7491 9.184H51.2931V8.048H61.6291ZM58.7171 9.184H53.6131L53.2771 9.04C53.7251 9.14667 54.1731 9.31733 54.6211 9.552C55.0798 9.78667 55.5011 10.0427 55.8851 10.32C56.2798 10.5867 56.5945 10.8427 56.8291 11.088L56.9091 11.984C56.5251 12.1547 56.1198 12.3413 55.6931 12.544C55.2771 12.7467 54.8718 12.9493 54.4771 13.152C54.0931 13.3547 53.7518 13.5573 53.4531 13.76L53.2611 13.52C54.1785 13.648 54.9785 13.8613 55.6611 14.16C56.3545 14.4587 56.9678 14.8213 57.5011 15.248C58.0345 15.6747 58.5251 16.1493 58.9731 16.672L58.7651 16.736C58.7545 16.512 58.7438 16.272 58.7331 16.016C58.7225 15.7493 58.7171 15.4987 58.7171 15.264V9.184ZM54.3331 18.096C54.0665 18.096 53.8371 18.0107 53.6451 17.84C53.4638 17.6693 53.3731 17.4453 53.3731 17.168C53.3731 16.8907 53.4638 16.6613 53.6451 16.48C53.8371 16.2987 54.0665 16.208 54.3331 16.208C54.5998 16.208 54.8238 16.2987 55.0051 16.48C55.1971 16.6613 55.2931 16.8907 55.2931 17.168C55.2931 17.4453 55.1971 17.6693 55.0051 17.84C54.8238 18.0107 54.5998 18.096 54.3331 18.096ZM65.8848 8.048V9.184H64.2048V18H62.9728V10.496C62.8448 10.1333 62.6528 9.824 62.3968 9.568C62.1514 9.312 61.8314 9.184 61.4367 9.184H61.3087V8.048H61.5488C61.8048 8.048 62.0714 8.13333 62.3488 8.304C62.6261 8.464 62.8501 8.71467 63.0208 9.056C63.0101 9.00267 62.9994 8.88 62.9888 8.688C62.9781 8.496 62.9728 8.33067 62.9728 8.192V6.992H63.8368L64.1888 8.048H65.8848ZM70.1348 8.048V9.184H68.4548V18H67.2228V9.184H65.5587V8.048H67.0308C66.8601 7.84533 66.6841 7.632 66.5028 7.408C66.3321 7.184 66.1774 6.96 66.0388 6.736C66.4014 6.10667 66.7908 5.536 67.2068 5.024C67.6228 4.50133 68.1134 4.09067 68.6788 3.792C69.2441 3.48267 69.9268 3.328 70.7268 3.328C71.2921 3.328 71.8308 3.39733 72.3428 3.536C72.8654 3.67467 73.3774 3.87733 73.8788 4.144C74.3801 4.4 74.8868 4.71467 75.3988 5.088C75.9108 5.45067 76.4441 5.856 76.9988 6.304L76.3268 7.168C75.5908 6.57067 74.9241 6.07467 74.3268 5.68C73.7401 5.28533 73.1748 4.992 72.6308 4.8C72.0974 4.59733 71.5268 4.496 70.9188 4.496C70.3321 4.496 69.8201 4.59733 69.3828 4.8C68.9561 5.00267 68.5828 5.28533 68.2628 5.648C67.9534 6.01067 67.6708 6.432 67.4148 6.912C67.5001 7.072 67.6174 7.248 67.7668 7.44C67.9161 7.632 68.0868 7.83467 68.2788 8.048H70.1348ZM80.0808 8.048V9.184H78.4008V18H77.1688V15.84L77.4568 16.688C77.0834 16.1227 76.7048 15.6 76.3208 15.12C75.9474 14.64 75.5474 14.2507 75.1208 13.952C74.7048 13.6533 74.2461 13.504 73.7448 13.504C73.3501 13.504 73.0141 13.6053 72.7368 13.808C72.4701 14.0107 72.3368 14.3147 72.3368 14.72C72.3368 15.072 72.4648 15.3707 72.7208 15.616C72.9768 15.8507 73.3554 16.0533 73.8568 16.224L73.4568 17.456C72.8808 17.2533 72.4114 17.008 72.0488 16.72C71.6968 16.432 71.4354 16.1173 71.2648 15.776C71.1047 15.424 71.0247 15.056 71.0247 14.672C71.0247 14.16 71.1474 13.7333 71.3928 13.392C71.6488 13.0507 71.9688 12.7947 72.3528 12.624C72.7474 12.4427 73.1421 12.352 73.5368 12.352C74.1768 12.352 74.7368 12.4693 75.2168 12.704C75.7074 12.9387 76.1341 13.2533 76.4968 13.648C76.8701 14.0427 77.2061 14.4853 77.5048 14.976L77.2328 15.024C77.2114 14.7787 77.1954 14.5333 77.1848 14.288C77.1741 14.032 77.1688 13.7707 77.1688 13.504V9.184H69.8087V8.048H80.0808ZM74.7528 12.832C74.7528 12.896 74.7474 12.96 74.7368 13.024C74.7368 13.088 74.7314 13.152 74.7208 13.216L73.5048 12.848C73.4834 12.2293 73.3768 11.7333 73.1848 11.36C72.9928 10.9867 72.6888 10.704 72.2728 10.512C71.8568 10.3093 71.2914 10.1707 70.5768 10.096L70.7848 8.944L71.5208 9.152C72.0328 9.19467 72.4861 9.30133 72.8808 9.472C73.2861 9.632 73.6274 9.86133 73.9048 10.16C74.1821 10.4587 74.3901 10.832 74.5288 11.28C74.6781 11.7173 74.7528 12.2347 74.7528 12.832ZM75.8579 6.688L81.0739 3.328L81.6819 4.24L76.5779 7.696L75.8579 6.688ZM81.8899 12.976C82.5619 13.3813 83.1965 13.8667 83.7939 14.432C84.4019 14.9867 84.9512 15.584 85.4419 16.224C85.9432 16.864 86.3645 17.4987 86.7059 18.128L85.6659 18.656C85.2285 17.984 84.7912 17.3813 84.3539 16.848C83.9272 16.304 83.4525 15.8027 82.9299 15.344C82.4179 14.8853 81.8045 14.4373 81.0899 14L81.8899 12.976ZM81.1699 10.224C81.1699 9.78667 81.2659 9.408 81.4579 9.088C81.6605 8.75733 81.9325 8.50133 82.2739 8.32C82.6152 8.13867 82.9992 8.048 83.4259 8.048C83.8525 8.048 84.2365 8.13867 84.5779 8.32C84.9192 8.50133 85.1859 8.75733 85.3779 9.088C85.5805 9.408 85.6819 9.78667 85.6819 10.224C85.6819 10.6613 85.5805 11.0453 85.3779 11.376C85.1859 11.7067 84.9192 11.9627 84.5779 12.144C84.2365 12.3253 83.8525 12.416 83.4259 12.416C82.9992 12.416 82.6152 12.3253 82.2739 12.144C81.9325 11.9627 81.6605 11.712 81.4579 11.392C81.2659 11.0613 81.1699 10.672 81.1699 10.224ZM82.2739 10.224C82.2739 10.5867 82.3805 10.8693 82.5939 11.072C82.8179 11.2747 83.0952 11.376 83.4259 11.376C83.7672 11.376 84.0445 11.2747 84.2579 11.072C84.4712 10.8587 84.5779 10.576 84.5779 10.224C84.5779 9.86133 84.4712 9.584 84.2579 9.392C84.0445 9.18933 83.7672 9.088 83.4259 9.088C83.0952 9.088 82.8179 9.19467 82.5939 9.408C82.3805 9.61067 82.2739 9.88267 82.2739 10.224Z" fill="#313131"/>
</svg>
