<svg width="16" height="16" viewBox="0 0 16 16" fill="none" xmlns="http://www.w3.org/2000/svg">
<g clip-path="url(#clip0_17_157)">
<path d="M15.4839 0H13.9355C13.6508 0 13.4194 0.231484 13.4194 0.516129V0.680774L13.297 0.827613C12.745 1.49054 12.0891 2.05949 11.3548 2.51226V0.469677L10.0939 0.679742C9.6226 0.757292 9.17891 0.953991 8.80494 1.25117C8.43098 1.54836 8.13916 1.93617 7.95716 2.37781C6.95716 1.91871 5.74168 1.98323 4.79329 2.552L4.25419 2.87535C4.20813 2.90296 4.17183 2.94425 4.15035 2.99347C4.12886 3.04269 4.12327 3.09739 4.13435 3.14994C4.14543 3.20249 4.17262 3.25027 4.21215 3.28663C4.25167 3.32299 4.30155 3.34611 4.35484 3.35277C5.3631 3.47871 6.21832 4.15613 6.58839 5.0929C6.12387 5.456 5.74839 5.93239 5.51794 6.49213L4.47226 9.03226H4.0431C2.952 9.03226 2.06452 9.91974 2.06452 11.0108C2.06452 11.5265 2.27174 12.0209 2.62658 12.3871H0.516129C0.231484 12.3871 0 12.6186 0 12.9032V13.1613C0 14.7265 1.27355 16 2.83871 16H9.54839C9.73075 15.9996 9.90711 15.9348 10.0464 15.8171C10.1856 15.6993 10.2788 15.5362 10.3094 15.3564C10.9732 14.8147 11.3548 14.023 11.3548 13.1613V12.9032C11.3548 12.6186 11.1234 12.3871 10.8387 12.3871H8.25806C7.97342 12.3871 7.74194 12.6186 7.74194 12.9032V13.6774H8.25806V12.9032H10.8387V13.1613C10.8387 13.7768 10.6 14.3484 10.1786 14.7791C10.1074 14.6781 10.013 14.5956 9.90336 14.5386C9.7937 14.4816 9.67197 14.4518 9.54839 14.4516H8.25806V14.9677H9.54839C9.61483 14.9707 9.67757 14.9992 9.72354 15.0473C9.76951 15.0953 9.79517 15.1593 9.79517 15.2258C9.79517 15.2923 9.76951 15.3563 9.72354 15.4043C9.67757 15.4524 9.61483 15.4809 9.54839 15.4839H5.93548C5.86904 15.4809 5.8063 15.4524 5.76033 15.4043C5.71436 15.3563 5.6887 15.2923 5.6887 15.2258C5.6887 15.1593 5.71436 15.0953 5.76033 15.0473C5.8063 14.9992 5.86904 14.9707 5.93548 14.9677H7.22581V12.9032C7.22581 12.6754 7.07665 12.4841 6.87148 12.4157C7.31451 12.2151 7.7912 12.0992 8.2769 12.0741C9.99613 11.9835 11.4366 10.9009 12.0578 9.39923L13.4194 8.88852V15.4839C13.4194 15.7685 13.6508 16 13.9355 16H15.4839C15.7685 16 16 15.7685 16 15.4839V0.516129C16 0.231484 15.7685 0 15.4839 0ZM13.4194 7.15329L13.249 7.11071C13.1502 7.08614 13.0624 7.02918 12.9998 6.94892C12.9371 6.86865 12.9031 6.76971 12.9032 6.66787C12.9032 6.47535 12.8467 6.28877 12.7399 6.12852L12.6248 5.95587C12.4695 5.72353 12.3868 5.45029 12.3871 5.17084C12.3871 4.74968 12.5726 4.35329 12.8965 4.08361L13.4194 3.64774V7.15329ZM5.95768 2.65368C5.84996 2.85783 5.70793 3.04193 5.53781 3.19794C5.38632 3.11819 5.23071 3.04568 5.0671 2.98994C5.34245 2.82581 5.64568 2.71742 5.95768 2.65368ZM5.99019 3.48387C6.23921 3.22874 6.43192 2.9242 6.55587 2.58994C6.93239 2.59071 7.30787 2.66297 7.656 2.80877C7.57476 3.08037 7.437 3.33172 7.25176 3.54632C7.06652 3.76091 6.83799 3.93391 6.58116 4.05394C6.40843 3.84027 6.20993 3.6488 5.99019 3.48387ZM6.87277 4.48877C7.22212 4.31008 7.52502 4.05243 7.75742 3.73626C7.77806 3.94323 7.82013 4.14761 7.88619 4.34606L7.91974 4.44671C7.60785 4.52221 7.30807 4.64104 7.02916 4.79974C6.98271 4.69265 6.93006 4.58942 6.87277 4.48877ZM4.0431 9.54839H4.49703L6.07794 12.2588L5.864 12.3871H5.67742C5.39277 12.3871 5.16129 12.6186 5.16129 12.9032V13.6774C5.15832 13.7439 5.12983 13.8066 5.08176 13.8526C5.03369 13.8985 4.96974 13.9242 4.90323 13.9242C4.83671 13.9242 4.77276 13.8985 4.72469 13.8526C4.67662 13.8066 4.64813 13.7439 4.64516 13.6774V12.9032C4.64516 12.6186 4.41368 12.3871 4.12903 12.3871H3.97781L4.31148 12.0534L3.94658 11.6885L3.33058 12.3045L3.16542 12.1806C2.98428 12.044 2.83722 11.8673 2.73577 11.6644C2.63432 11.4614 2.58122 11.2377 2.58065 11.0108C2.58105 10.6231 2.73527 10.2514 3.00944 9.97718C3.28361 9.70301 3.65536 9.5488 4.0431 9.54839ZM6.70968 14.4516H5.93548C5.8117 14.4518 5.68976 14.4817 5.57987 14.5387C5.46999 14.5957 5.37535 14.6781 5.30387 14.7792C5.23239 14.8803 5.18615 14.997 5.16902 15.1196C5.1519 15.2422 5.16438 15.3671 5.20542 15.4839H2.83871C1.55794 15.4839 0.516129 14.4418 0.516129 13.1613V12.9032H4.12903V13.6774C4.12903 14.1043 4.47639 14.4516 4.90323 14.4516C5.33006 14.4516 5.67742 14.1043 5.67742 13.6774V12.9032H6.70968V14.4516ZM12.2588 8.77239C12.3396 8.44129 12.3871 8.09729 12.3871 7.74194H11.871C11.871 9.77523 10.2803 11.4516 8.22632 11.5597C7.6369 11.5907 7.05703 11.7453 6.52852 12.0067L4.93239 9.27045L5.29187 8.39716L6.13393 8.95871C6.53045 9.22263 7.00894 9.33446 7.48136 9.27362C7.95377 9.21279 8.38832 8.98338 8.70503 8.62761L9.99664 7.17445C10.2068 6.93835 10.3228 6.63323 10.3226 6.31716V5.67742H9.80645V6.31716C9.80643 6.50677 9.73682 6.68978 9.61084 6.83148L8.31923 8.28465C8.08539 8.54749 7.76446 8.71699 7.41554 8.76195C7.06662 8.8069 6.71321 8.72428 6.42039 8.52929L5.49239 7.91045L5.99535 6.68877C6.19077 6.21702 6.50542 5.80415 6.90847 5.49063C7.31152 5.17712 7.78912 4.97372 8.29445 4.90039L8.60052 4.85677L8.376 4.18297C8.29787 3.94865 8.25804 3.70326 8.25806 3.45626C8.25664 2.91179 8.44913 2.38459 8.80104 1.96913C9.15295 1.55366 9.64129 1.27707 10.1786 1.1889L10.8387 1.07871V1.54839C9.70039 1.54839 8.77419 2.47458 8.77419 3.6129H9.29032C9.29032 2.75897 9.98477 2.06452 10.8387 2.06452V2.73935C10.8399 3.09828 10.7329 3.44923 10.5317 3.74645C10.3305 4.04368 10.0444 4.2734 9.71071 4.40568L9.90219 4.88464C10.2692 4.73892 10.5924 4.50099 10.8406 4.19386C11.0888 3.88673 11.2535 3.52077 11.319 3.13135C12.1025 2.69259 12.8114 2.13214 13.4191 1.47097V2.97574L12.5654 3.68697C12.3477 3.86809 12.1727 4.09495 12.0526 4.35142C11.9326 4.6079 11.8706 4.88767 11.871 5.17084C11.871 5.55329 11.9832 5.92387 12.1954 6.24206L12.3105 6.41471C12.3605 6.49006 12.3871 6.57755 12.3871 6.66787C12.3869 6.88484 12.4593 7.09564 12.5928 7.26664C12.7264 7.43764 12.9133 7.559 13.1239 7.61135L13.4194 7.68542V8.33729L12.2588 8.77239ZM13.9355 15.4839V0.516129H15.4839L15.4841 15.4839H13.9355Z" fill="#313131"/>
<path d="M3.871 11.3548C4.29783 11.3548 4.64519 11.0075 4.64519 10.5806C4.64519 10.1538 4.29783 9.80645 3.871 9.80645C3.44416 9.80645 3.0968 10.1538 3.0968 10.5806C3.0968 11.0075 3.44416 11.3548 3.871 11.3548ZM3.871 10.3226C3.92211 10.3225 3.97209 10.3376 4.01461 10.366C4.05713 10.3944 4.09028 10.4347 4.10986 10.4819C4.12945 10.5291 4.13458 10.5811 4.12462 10.6312C4.11467 10.6814 4.09006 10.7274 4.05392 10.7636C4.01777 10.7997 3.97172 10.8243 3.92159 10.8343C3.87145 10.8442 3.81949 10.8391 3.77228 10.8195C3.72507 10.7999 3.68472 10.7668 3.65636 10.7243C3.62799 10.6817 3.61288 10.6318 3.61293 10.5806C3.61293 10.4385 3.72854 10.3226 3.871 10.3226ZM6.70971 7.48387V7.74194H7.4839C8.19538 7.74194 8.77422 7.1631 8.77422 6.45161V6.19355H8.00003C7.28854 6.19355 6.70971 6.77239 6.70971 7.48387ZM7.4839 7.22581H7.26996C7.32353 7.07497 7.42245 6.94439 7.55316 6.85199C7.68387 6.75958 7.83996 6.70987 8.00003 6.70968H8.21396C8.16039 6.86052 8.06147 6.9911 7.93077 7.0835C7.80006 7.1759 7.64397 7.22561 7.4839 7.22581Z" fill="#313131"/>
</g>
<defs>
<clipPath id="clip0_17_157">
<rect width="16" height="16" fill="white"/>
</clipPath>
</defs>
</svg>
