<svg width="16" height="16" viewBox="0 0 16 16" fill="none" xmlns="http://www.w3.org/2000/svg">
<path d="M4.41872 5.94281L5.26028 5.10187C5.33341 5.02875 5.45216 5.02875 5.52528 5.10187C5.59841 5.175 5.59841 5.29375 5.52528 5.36719L4.55778 6.33375C4.54042 6.3512 4.51977 6.36505 4.49703 6.37449C4.47429 6.38392 4.4499 6.38877 4.42528 6.38875C4.37899 6.38881 4.33432 6.37166 4.29997 6.34062L3.86903 5.95312C3.79216 5.88375 3.7856 5.76531 3.85497 5.68844C3.92435 5.61156 4.04278 5.605 4.11966 5.67438L4.41872 5.94281ZM6.44778 5.9325V5.4625C6.44778 5.24813 6.62216 5.07375 6.83653 5.07375H9.47028C9.68466 5.07375 9.85903 5.24813 9.85903 5.4625V5.9325C9.85903 6.14687 9.68466 6.32125 9.47028 6.32125H6.83653C6.62247 6.32156 6.44778 6.14687 6.44778 5.9325ZM6.82278 5.9325C6.82278 5.93969 6.82935 5.94625 6.83653 5.94625H9.47028C9.47747 5.94625 9.48403 5.93969 9.48403 5.9325V5.4625C9.48403 5.45531 9.47747 5.44875 9.47028 5.44875H6.83653C6.82935 5.44875 6.82278 5.45531 6.82278 5.4625V5.9325ZM6.44778 8.49687V8.02687C6.44778 7.8125 6.62216 7.63812 6.83653 7.63812H9.47028C9.68466 7.63812 9.85903 7.8125 9.85903 8.02687V8.49687C9.85903 8.71125 9.68466 8.88562 9.47028 8.88562H6.83653C6.62247 8.88562 6.44778 8.71125 6.44778 8.49687ZM6.82278 8.49687C6.82278 8.50406 6.82935 8.51062 6.83653 8.51062H9.47028C9.47747 8.51062 9.48403 8.50406 9.48403 8.49687V8.02687C9.48403 8.01969 9.47747 8.01313 9.47028 8.01313H6.83653C6.82935 8.01313 6.82278 8.01969 6.82278 8.02687V8.49687ZM6.44778 11.0609V10.5909C6.44778 10.3766 6.62216 10.2022 6.83653 10.2022H9.47028C9.68466 10.2022 9.85903 10.3766 9.85903 10.5909V11.0609C9.85903 11.2753 9.68466 11.4497 9.47028 11.4497H6.83653C6.62247 11.45 6.44778 11.2756 6.44778 11.0609ZM6.82278 11.0609C6.82278 11.0681 6.82935 11.0747 6.83653 11.0747H9.47028C9.47747 11.0747 9.48403 11.0681 9.48403 11.0609V10.5909C9.48403 10.5837 9.47747 10.5772 9.47028 10.5772H6.83653C6.82935 10.5772 6.82278 10.5837 6.82278 10.5909V11.0609ZM5.26028 7.71969L4.41872 8.56063L4.11997 8.29187C4.0431 8.2225 3.92435 8.22906 3.85528 8.30594C3.83879 8.32422 3.82606 8.34558 3.81784 8.36879C3.80961 8.392 3.80605 8.41661 3.80736 8.4412C3.80866 8.46579 3.81481 8.48988 3.82545 8.51209C3.83609 8.5343 3.851 8.55419 3.86935 8.57063L4.30028 8.95813C4.33464 8.98916 4.3793 9.00631 4.4256 9.00625C4.47372 9.00625 4.52153 8.98781 4.5581 8.95125L5.5256 7.98469C5.54302 7.96727 5.55684 7.94659 5.56628 7.92383C5.57571 7.90107 5.58056 7.87667 5.58056 7.85203C5.58056 7.82739 5.57571 7.803 5.56628 7.78023C5.55684 7.75747 5.54302 7.73679 5.5256 7.71938C5.45247 7.64656 5.33372 7.64656 5.26028 7.71969ZM5.26028 10.3375L4.41872 11.1784L4.11997 10.9097C4.0431 10.8403 3.92435 10.8469 3.85528 10.9237C3.83879 10.942 3.82606 10.9634 3.81784 10.9866C3.80961 11.0098 3.80605 11.0344 3.80736 11.059C3.80866 11.0836 3.81481 11.1077 3.82545 11.1299C3.83609 11.1521 3.851 11.172 3.86935 11.1884L4.30028 11.5759C4.33464 11.607 4.3793 11.6241 4.4256 11.6241C4.47372 11.6241 4.52153 11.6056 4.5581 11.5691L5.5256 10.6025C5.54302 10.5851 5.55684 10.5644 5.56628 10.5416C5.57571 10.5189 5.58056 10.4945 5.58056 10.4698C5.58056 10.4452 5.57571 10.4208 5.56628 10.398C5.55684 10.3753 5.54302 10.3546 5.5256 10.3372C5.45247 10.2644 5.33372 10.2644 5.26028 10.3375ZM14.7015 12.1506V14.8378C14.7015 15.2203 14.3903 15.5312 14.0081 15.5312H2.72653C1.93903 15.5312 1.2981 14.8906 1.2981 14.1028V2.56844C1.2981 1.78094 1.93872 1.14 2.72653 1.14H4.7231V0.65625C4.7231 0.552813 4.80716 0.46875 4.9106 0.46875H8.75591C8.85934 0.46875 8.94341 0.552813 8.94341 0.65625V1.14H10.94C11.7275 1.14 12.3684 1.78063 12.3684 2.56844V8.45156H13.6628C13.9928 8.45156 14.2615 8.72 14.2615 9.05031V11.2338C14.2615 11.3241 14.2409 11.4091 14.205 11.4859C14.4918 11.5706 14.7015 11.8366 14.7015 12.1506ZM13.6628 8.82656H12.8922V9.13719C12.8922 9.33531 12.7309 9.49656 12.5328 9.49656H11.8231C11.625 9.49656 11.4637 9.33531 11.4637 9.13719V8.82656H10.6684C10.545 8.82656 10.4447 8.92687 10.4447 9.05031V11.2338C10.4447 11.3572 10.545 11.4575 10.6684 11.4575H13.6628C13.7862 11.4575 13.8865 11.3572 13.8865 11.2338V9.05C13.8862 8.92688 13.7859 8.82656 13.6628 8.82656ZM11.72 12.2575C11.72 12.2703 11.7312 12.2816 11.744 12.2816H12.6175C12.6303 12.2816 12.6415 12.2703 12.6415 12.2575V11.8322H11.72V12.2575ZM11.8387 9.12125H12.5172V8.82625H11.8387V9.12125ZM8.94341 1.515V2.4825H10.8372C10.9406 2.4825 11.0247 2.56656 11.0247 2.67V8.45125H11.9934V2.56844C11.9934 1.9875 11.5209 1.515 10.94 1.515H8.94341ZM8.75591 3.39469H4.9106C4.80716 3.39469 4.7231 3.31062 4.7231 3.20719V2.8575H3.01685V13.8134H9.62903V12.1503C9.62903 11.8363 9.83903 11.5703 10.1259 11.4853C10.0887 11.4064 10.0694 11.3203 10.0693 11.2331V9.05C10.0693 8.72625 10.3278 8.46219 10.6493 8.45219V2.8575H8.94309V3.20688C8.94317 3.23151 8.93838 3.25591 8.92901 3.27869C8.91964 3.30147 8.90586 3.32218 8.88847 3.33962C8.87108 3.35707 8.85042 3.37091 8.82768 3.38036C8.80493 3.38981 8.78054 3.39468 8.75591 3.39469ZM5.0981 3.01969H8.56841V0.84375H5.0981V3.01969ZM2.72653 15.1562H9.70684C9.6556 15.0579 9.62891 14.9487 9.62903 14.8378V14.1888H2.82935C2.72591 14.1888 2.64185 14.1047 2.64185 14.0013V2.67C2.64185 2.56656 2.72591 2.4825 2.82935 2.4825H4.7231V1.515H2.72653C2.1456 1.515 1.6731 1.9875 1.6731 2.56844V14.1028C1.67341 14.6838 2.14591 15.1562 2.72653 15.1562ZM14.3265 12.1506C14.3265 11.975 14.1837 11.8322 14.0081 11.8322H13.0165V12.2575C13.0165 12.4775 12.8375 12.6566 12.6175 12.6566H11.744C11.524 12.6566 11.345 12.4775 11.345 12.2575V11.8322H10.3228C10.1472 11.8322 10.0043 11.975 10.0043 12.1506V14.8378C10.0043 15.0134 10.1472 15.1562 10.3228 15.1562H14.0081C14.1837 15.1562 14.3265 15.0134 14.3265 14.8378V12.1506ZM10.6053 13.945H11.7818C11.8853 13.945 11.9693 13.8609 11.9693 13.7575C11.9693 13.6541 11.8853 13.57 11.7818 13.57H10.6053C10.5018 13.57 10.4178 13.6541 10.4178 13.7575C10.4178 13.8609 10.5018 13.945 10.6053 13.945ZM12.2531 14.295H10.605C10.5015 14.295 10.4175 14.3791 10.4175 14.4825C10.4175 14.5859 10.5015 14.67 10.605 14.67H12.2531C12.3565 14.67 12.4406 14.5859 12.4406 14.4825C12.4406 14.3791 12.3568 14.295 12.2531 14.295ZM10.9868 10.4697H11.7503C11.8537 10.4697 11.9378 10.3856 11.9378 10.2822C11.9378 10.1788 11.8537 10.0947 11.7503 10.0947H10.9868C10.8834 10.0947 10.7993 10.1788 10.7993 10.2822C10.7993 10.3856 10.8831 10.4697 10.9868 10.4697ZM12.0562 10.7281H10.9868C10.8834 10.7281 10.7993 10.8122 10.7993 10.9156C10.7993 11.0191 10.8834 11.1031 10.9868 11.1031H12.0562C12.1597 11.1031 12.2437 11.0191 12.2437 10.9156C12.2437 10.8122 12.1597 10.7281 12.0562 10.7281Z" fill="#313131"/>
</svg>
