<svg width="16" height="16" viewBox="0 0 16 16" fill="none" xmlns="http://www.w3.org/2000/svg">
<g clip-path="url(#clip0_22_213)">
<path fill-rule="evenodd" clip-rule="evenodd" d="M9.10312 7.62814C9.10312 7.53439 9.18125 7.45626 9.275 7.45626C9.36875 7.45626 9.44687 7.53439 9.44687 7.62814C9.44687 7.93126 9.92187 8.08751 10.1906 7.85939C10.2625 7.80001 10.3062 7.71564 10.3062 7.62814C10.3062 7.04689 9.10312 7.54064 9.10312 6.59689C9.10312 6.40626 9.19375 6.22501 9.34062 6.10626C9.44062 6.02189 9.56562 5.95939 9.70625 5.93126V5.69376C9.70625 5.60001 9.78437 5.52189 9.87812 5.52189C9.97187 5.52189 10.05 5.60001 10.05 5.69376V5.93126C10.1906 5.95939 10.3156 6.02189 10.4156 6.10626C10.5625 6.23126 10.6531 6.40626 10.6531 6.60001C10.6531 6.69376 10.575 6.77189 10.4812 6.77189C10.3875 6.77189 10.3094 6.69376 10.3094 6.60001C10.3094 6.51251 10.2656 6.42814 10.1937 6.36876C10.0187 6.22189 9.73437 6.22501 9.5625 6.36876C9.49062 6.42814 9.44687 6.51251 9.44687 6.60001C9.44687 7.17189 10.65 6.68126 10.65 7.63126C10.65 7.97189 10.375 8.23126 10.05 8.29689V8.53439C10.05 8.62814 9.97187 8.70626 9.87812 8.70626C9.78437 8.70626 9.70625 8.62814 9.70625 8.53439V8.29689C9.375 8.22814 9.10312 7.96564 9.10312 7.62814ZM3.51562 11.7969L4.55937 13.55C5.39375 12.8469 5.84375 12.9938 6.70937 13.2813C7.05937 13.3969 7.48437 13.5375 8.04062 13.6438C8.04375 13.6438 8.04687 13.6438 8.05 13.6469C8.5 13.7594 9.96875 13.2969 10.6687 13.0656C10.675 13.0625 10.6812 13.0625 10.6844 13.0594C11.0812 12.9406 11.2844 12.7969 11.3469 12.6688C11.3687 12.625 11.3687 12.6 11.3344 12.5719C11.2625 12.5125 11.1156 12.4875 10.9156 12.5313C10.9125 12.5313 10.9094 12.5313 10.9031 12.5344C10.6906 12.575 10.5094 12.6156 10.3437 12.6531C9.94375 12.7438 9.62812 12.8188 9.02187 12.8219C9.00625 12.8219 8.99062 12.8188 8.97812 12.8156C8.65937 12.7438 7.66875 12.4 7.1625 12.2281C7.05937 12.1938 7.00312 12.0781 7.0375 11.975C7.07187 11.8719 7.18437 11.8156 7.29062 11.85C7.49062 11.9031 7.73125 11.9156 7.98437 11.8938C8.27812 11.8688 8.58437 11.8031 8.8625 11.7125C9.0625 11.5938 9.15625 11.4719 9.17812 11.3625C9.2125 11.1906 9.05312 11.0656 8.87812 11.1063L8.55 11.1531C7.9375 11.2406 7.22187 11.3438 6.2875 11.15C6.26562 11.1469 6.24687 11.1375 6.23125 11.1281C5.8375 10.9313 5.4625 10.8969 5.03125 11.0156C4.6125 11.1281 4.125 11.3906 3.51562 11.7969ZM3.25 15.0938L1.53437 12.2156C1.47812 12.1219 1.50937 12 1.60312 11.9406L2.90625 11.1625C3 11.1063 3.12187 11.1375 3.18125 11.2313L3.3125 11.4531C3.94687 11.0344 4.4625 10.7594 4.93125 10.6281C5.45937 10.4844 5.91562 10.525 6.39687 10.7625C7.25 10.9344 7.925 10.8375 8.5 10.7531C8.59062 10.7406 8.675 10.7281 8.80312 10.7125C9.01875 10.6656 9.21875 10.7219 9.3625 10.8406C9.5375 10.9844 9.61875 11.2063 9.57187 11.4375C9.52812 11.65 9.37187 11.8781 9.05312 12.0625C8.96562 12.1156 8.55312 12.2094 8.43125 12.2344L9.04687 12.425C9.59062 12.4188 9.88437 12.3531 10.2562 12.2656C10.4219 12.2281 10.6 12.1875 10.8312 12.1438C11.5219 12.0031 11.9125 12.4281 11.7031 12.85C11.5969 13.0656 11.3125 13.2906 10.7969 13.4469C9.95312 13.7188 8.56875 14.175 7.95312 14.0406C7.37187 13.9281 6.9375 13.7844 6.57812 13.6656C5.84062 13.4219 5.4625 13.2969 4.7625 13.9031L4.89062 14.1156C4.94687 14.2094 4.91562 14.3313 4.82187 14.3906L3.51875 15.1688C3.43125 15.2188 3.30625 15.1875 3.25 15.0938ZM1.97812 12.1813L2.94062 11.6094L3.05312 11.8C3.08125 11.8656 3.0625 11.8313 3.1 11.8813L4.45 14.1469L3.49062 14.7188L1.97812 12.1813ZM3.8 14.1344C3.72187 14.2125 3.59375 14.2094 3.51875 14.1313C3.33437 13.9406 3.64062 13.6406 3.82812 13.8313C3.90625 13.9094 3.90312 14.0375 3.825 14.1125L3.8 14.1344ZM11.1594 2.29376L11.3406 1.95001L10.8437 1.87814L10.6312 2.69064C10.6062 2.78126 10.5125 2.83751 10.4219 2.81251C10.3312 2.78751 10.275 2.69376 10.3 2.60314L10.6781 1.16876L9.25937 1.25939L9.475 1.80001L9.75312 2.53751C9.7875 2.62501 9.74062 2.72501 9.65312 2.75939C9.56562 2.79376 9.46562 2.74689 9.43125 2.65939L9.23437 2.12501L8.83125 2.41564L9.09375 3.25939H10.65L11.1594 2.29376ZM9.8875 3.60314L10.7562 3.94376C10.7875 3.93439 10.8156 3.91876 10.8375 3.89376C10.9406 3.78126 10.8594 3.60314 10.7094 3.60314H9.8875ZM8.95937 3.93439C8.99375 3.80314 9.06875 3.68751 9.175 3.60314C9.07187 3.60314 8.98437 3.58751 8.91875 3.65314C8.82187 3.75001 8.88125 3.93439 8.92812 3.94064C8.94062 3.94064 8.95 3.93751 8.95937 3.93439ZM12.1406 5.66876C11.3219 5.72189 11.15 5.60939 10.5812 5.24064C10.525 5.20314 10.4625 5.16564 10.35 5.09376L9.29687 4.61876C9.12812 4.54064 9.025 4.41876 8.975 4.28439C8.22187 4.47814 7.55937 5.07189 7.55937 5.87501C7.55937 6.19376 7.575 6.45314 7.59687 6.76876C7.6625 7.79064 7.71875 8.68751 6.95 9.56564C6.78437 9.75626 7 9.94689 7.175 10.0156C7.32812 10.075 7.50937 10.075 7.63125 9.95939C8.24375 9.37814 9.11562 9.78439 9.85625 9.78439C10.0781 9.78439 10.3094 9.75001 10.5344 9.71564C11.1031 9.62814 11.6437 9.54689 12.0812 9.95939C12.2969 10.1625 12.7031 10.0125 12.8031 9.79064C12.8344 9.72189 12.8281 9.64064 12.7625 9.56564C11.9937 8.68751 12.0531 7.79064 12.1156 6.76876C12.1344 6.52189 12.1781 5.92814 12.1406 5.66876ZM13.3344 5.88126L13.2281 6.15001L14.1281 6.50314L15.1281 3.95314L14.2281 3.60001L13.3344 5.88126ZM10.925 4.24376C10.8812 4.30314 10.8 4.32814 10.725 4.30001L9.6 3.85939C9.30312 3.74376 9.14375 4.17189 9.43437 4.30314L10.5219 4.79689C10.5812 4.83439 10.675 4.89689 10.7625 4.95314C11.2875 5.29376 11.425 5.38439 12.2625 5.31564C12.2937 5.31251 12.3219 5.31876 12.3469 5.33126L13.0719 5.60001L13.7281 3.92189L13.0437 3.65314L13.0062 3.63439L11.8156 2.78439C11.7 2.70314 11.5406 2.63126 11.3937 2.57814L10.9875 3.34689C11.3281 3.56876 11.2906 4.07189 10.925 4.24376ZM8.14687 4.27501C7.59687 4.63126 7.21562 5.20001 7.21562 5.87189C7.21562 6.16564 7.23437 6.49689 7.25312 6.78751C7.3125 7.73439 7.36562 8.56564 6.69062 9.33751C6.51875 9.53126 6.50937 9.74376 6.59687 9.93126C6.79062 10.35 7.46875 10.5844 7.86562 10.2031C7.93125 10.1406 8.00312 10.0938 8.07812 10.0594C8.37812 9.92501 8.775 9.99376 9.125 10.0469C9.77187 10.1469 9.9375 10.1469 10.5812 10.0469C11.0656 9.97189 11.5281 9.90314 11.8406 10.2C12.15 10.4938 12.6312 10.4219 12.925 10.1688C13.175 9.95314 13.2656 9.61876 13.0156 9.33439C12.3406 8.56251 12.3937 7.73126 12.4531 6.78439C12.4687 6.53439 12.5062 6.00001 12.4875 5.74689L12.9437 5.91564L12.8875 6.05626C12.8219 6.21251 12.9 6.39064 13.0594 6.44689L14.0437 6.83439C14.1937 6.89376 14.3625 6.81876 14.4187 6.66876L15.4562 4.02189C15.5156 3.87189 15.4406 3.70314 15.2906 3.64689L14.2937 3.25626C14.1437 3.19689 13.975 3.27189 13.9187 3.42189L13.8469 3.60626L13.1812 3.34376L12.0062 2.50626C11.8781 2.41564 11.7094 2.33439 11.5469 2.27189L11.7406 1.90314C11.8 1.79689 11.7437 1.66564 11.6187 1.64689L10.9219 1.54376L11.0562 1.03126C11.0906 0.912513 10.9969 0.803138 10.8812 0.812513L8.99062 0.931263C8.87812 0.937513 8.8 1.05626 8.84375 1.16564L9.09687 1.79689L8.52812 2.20939C8.46562 2.25001 8.43437 2.32814 8.45937 2.40314L8.6 2.85314L7.81875 3.05001C7.325 3.17501 7.22187 3.70001 7.46875 4.04064C7.61875 4.23751 7.84375 4.33751 8.14687 4.27501ZM8.70625 3.17814L8.75937 3.34689C8.59062 3.45939 8.50937 3.64064 8.52812 3.84689L8.05625 3.94376C7.67187 4.02189 7.52812 3.47501 7.90625 3.37814L8.70625 3.17814ZM2.53437 5.31564C2.98437 4.85314 3.72187 4.84376 4.18437 5.29376C4.64687 5.74376 4.65625 6.48126 4.20625 6.94376C3.75625 7.40626 3.01875 7.41564 2.55625 6.96564C2.09375 6.51564 2.08437 5.77814 2.53437 5.31564ZM3.35937 5.30626C2.62812 5.31564 2.26875 6.20939 2.79375 6.72189C3.31875 7.23439 4.20312 6.85314 4.19375 6.12189C4.1875 5.66564 3.81562 5.30001 3.35937 5.30626ZM4.1375 4.26251C4.075 4.23751 4.0125 4.21564 3.94687 4.19689C3.88437 4.18126 3.83125 4.13439 3.81875 4.06564L3.72187 3.62189L2.99062 3.63126L2.90937 4.05626C2.9 4.12189 2.85625 4.17814 2.7875 4.19689C2.675 4.23126 2.50625 4.29689 2.40625 4.35314C2.35312 4.38751 2.28125 4.38751 2.22187 4.35314L1.84375 4.10314L1.33125 4.62814L1.57812 4.99064C1.61562 5.04064 1.62187 5.11251 1.59062 5.17189C1.53125 5.28439 1.46562 5.43439 1.43125 5.55626C1.41562 5.61876 1.36562 5.66876 1.3 5.68126L0.856246 5.77814L0.865621 6.50939L1.29062 6.59064C1.35625 6.60001 1.4125 6.64376 1.43125 6.71251C1.46562 6.82501 1.53125 6.99376 1.5875 7.09376C1.62187 7.14689 1.62187 7.21876 1.5875 7.27814L1.34375 7.65626L1.86875 8.16876L2.23125 7.92189C2.28125 7.88439 2.35312 7.87814 2.4125 7.90939C2.51875 7.96564 2.68125 8.03751 2.79375 8.06876C2.85625 8.08439 2.90937 8.13126 2.92187 8.20001L3.01875 8.64376L3.75 8.63439L3.83125 8.20939C3.84062 8.14376 3.88437 8.08751 3.95312 8.06876C4.06562 8.03439 4.23437 7.96876 4.33437 7.91251C4.3875 7.87814 4.45937 7.87814 4.51875 7.91251L4.9 8.15939L5.4125 7.63439L5.16562 7.27189C5.12812 7.22189 5.12187 7.15001 5.15312 7.09064C5.20937 6.98439 5.28125 6.82189 5.30937 6.70939C5.325 6.64689 5.37187 6.59376 5.44062 6.58126L5.88437 6.48439L5.875 5.75314L5.45 5.67189C5.38437 5.66251 5.32812 5.61876 5.30937 5.55001C5.275 5.43751 5.20937 5.26876 5.15312 5.16876C5.11875 5.11564 5.11875 5.04376 5.15312 4.98439L5.4 4.60314L4.87187 4.09376L4.50937 4.34064C4.45937 4.37814 4.3875 4.38439 4.32812 4.35314C4.26562 4.31876 4.2 4.28751 4.1375 4.26251ZM4.13437 3.89376L4.03125 3.40939C4.01562 3.33126 3.94375 3.27189 3.8625 3.27501L2.85937 3.28751C2.775 3.28439 2.7 3.34376 2.68437 3.42814L2.59375 3.90001L2.33125 4.00939L1.91562 3.74064C1.85 3.69689 1.75937 3.70626 1.7 3.76564L0.996871 4.48439C0.937496 4.54064 0.924996 4.63439 0.971871 4.70626L1.24375 5.10314L1.13437 5.36876L0.649996 5.47189C0.571871 5.48751 0.512496 5.55939 0.515621 5.64064L0.528121 6.64376C0.524996 6.72814 0.584371 6.80314 0.668746 6.81876L1.14062 6.90939L1.25 7.17189L0.981246 7.58751C0.937496 7.65314 0.946871 7.74376 1.00625 7.80314L1.725 8.50626C1.78125 8.56564 1.875 8.57814 1.94687 8.53126L2.34375 8.25939L2.60937 8.36876L2.7125 8.85314C2.72812 8.93126 2.8 8.99064 2.88125 8.98751L3.88437 8.97501C3.96875 8.97814 4.04375 8.91876 4.05937 8.83439L4.15 8.36251L4.4125 8.25314L4.82812 8.52189C4.89375 8.56564 4.98437 8.55626 5.04375 8.49689L5.74687 7.77814C5.80625 7.72189 5.81875 7.62814 5.77187 7.55626L5.5 7.15939L5.60937 6.89376L6.09375 6.79064C6.17187 6.77501 6.23125 6.70314 6.22812 6.62189L6.21562 5.61876C6.21875 5.53439 6.15937 5.45939 6.075 5.44376L5.60312 5.35314L5.49375 5.09064L5.7625 4.67501C5.80625 4.60939 5.79687 4.51876 5.7375 4.45939L5.01875 3.75626C4.9625 3.69689 4.86875 3.68439 4.79687 3.73126L4.4 4.00314L4.13437 3.89376Z" fill="#313131"/>
</g>
<defs>
<clipPath id="clip0_22_213">
<rect width="16" height="16" fill="white"/>
</clipPath>
</defs>
</svg>
