<svg width="14" height="12" viewBox="0 0 14 12" fill="none" xmlns="http://www.w3.org/2000/svg">
<path d="M6.95985 10.0006C6.90979 9.98308 6.85482 9.98617 6.80704 10.0092C6.75926 10.0322 6.72257 10.0732 6.70505 10.1233L6.28165 11.3331C6.26765 11.3731 6.22965 11.4 6.18725 11.4H5.46285C5.27891 11.4005 5.09671 11.3645 4.92677 11.2941C4.75684 11.2237 4.60256 11.1203 4.47285 10.9899L2.02015 8.53719C1.49135 8.00839 1.20005 7.30529 1.20005 6.55739V4.04009L2.16845 3.68799C2.21785 3.66954 2.25797 3.63231 2.28006 3.58442C2.30215 3.53653 2.30443 3.48186 2.28641 3.43229C2.26838 3.38273 2.23151 3.34229 2.18382 3.31978C2.13612 3.29727 2.08147 3.29451 2.03175 3.31209L0.931749 3.71209C0.893151 3.72609 0.859801 3.75163 0.836236 3.78525C0.812671 3.81887 0.800036 3.85894 0.800049 3.89999V6.55739C0.800049 7.41209 1.13295 8.21569 1.73735 8.82009L4.19005 11.2728C4.53005 11.6128 4.98205 11.8 5.46285 11.8H6.18725C6.29089 11.7999 6.39195 11.7677 6.47648 11.7077C6.56101 11.6477 6.62484 11.563 6.65915 11.4652L7.08255 10.2554C7.10003 10.2053 7.09693 10.1504 7.07392 10.1026C7.05092 10.0548 7.00989 10.0181 6.95985 10.0006Z" fill="#313131"/>
<path d="M12.4116 5.5249C12.4116 5.5249 12.2339 5.4917 12.1803 5.4632L10.9529 4.8135C10.7588 4.71025 10.6038 4.54645 10.5112 4.347L10.2008 3.6741C10.1092 3.47639 9.97309 3.30256 9.80315 3.1662L8.85505 2.4078L8.86995 2.3106C8.87269 2.29247 8.88039 2.27545 8.8922 2.26142C8.904 2.24739 8.91946 2.2369 8.93685 2.2311L10.456 1.7184C10.5855 1.67481 10.698 1.59167 10.7777 1.48071C10.8573 1.36976 10.9001 1.23659 10.9001 1.1C10.9001 1.04695 10.879 0.996084 10.8415 0.958577C10.804 0.92107 10.7531 0.899998 10.7 0.899998H10.4001C10.347 0.899998 10.2961 0.92107 10.2586 0.958577C10.2211 0.996084 10.2 1.04695 10.2 1.1C10.2 1.15304 10.2211 1.20391 10.2586 1.24142C10.2961 1.27893 10.347 1.3 10.4001 1.3H10.4018C10.3796 1.31713 10.3547 1.33048 10.3281 1.3395L8.80895 1.8522C8.74202 1.87472 8.68066 1.91125 8.62895 1.95934C8.57724 2.00743 8.53637 2.06598 8.50905 2.1311L8.13585 1.8326L8.16995 1.6108C8.17269 1.59267 8.18039 1.57565 8.1922 1.56162C8.204 1.54759 8.21946 1.5371 8.23685 1.5313L9.75605 1.0186C9.88549 0.974932 9.99797 0.891747 10.0776 0.780766C10.1573 0.669786 10.2001 0.536606 10.2 0.399998C10.2 0.346955 10.179 0.296084 10.1415 0.258577C10.104 0.22107 10.0531 0.199998 10 0.199998H7.60215C7.38398 0.199696 7.16988 0.259015 6.98297 0.371546C6.79607 0.484078 6.64346 0.645544 6.54165 0.838498L6.03305 1.799L5.17395 2.1212C4.99875 1.9814 4.77925 1.9 4.55045 1.9H2.63385C2.54498 1.89938 2.45758 1.92274 2.38087 1.96762C2.30416 2.01249 2.24096 2.07723 2.19795 2.155C2.15389 2.23218 2.13146 2.3198 2.13301 2.40866C2.13456 2.49751 2.16003 2.5843 2.20675 2.6599L2.74475 3.5438C3.14135 4.1953 3.86145 4.6 4.62405 4.6C4.67709 4.6 4.72796 4.57893 4.76547 4.54142C4.80298 4.50391 4.82405 4.45304 4.82405 4.4C4.82405 4.34695 4.80298 4.29608 4.76547 4.25858C4.72796 4.22107 4.67709 4.2 4.62405 4.2C4.00005 4.2 3.41095 3.8689 3.08645 3.3359L2.54845 2.452C2.53905 2.4369 2.53392 2.41953 2.5336 2.40175C2.53328 2.38396 2.53779 2.36642 2.54665 2.351C2.5552 2.33539 2.56783 2.32241 2.58319 2.31343C2.59855 2.30444 2.61606 2.2998 2.63385 2.3H4.55045C4.65334 2.30034 4.75443 2.32698 4.84413 2.37739C4.93383 2.42779 5.00915 2.50029 5.06295 2.588L5.59045 3.4547C5.61803 3.50001 5.66249 3.53251 5.71403 3.54505C5.76557 3.55758 5.81999 3.54913 5.8653 3.52155C5.91061 3.49397 5.94311 3.44951 5.95565 3.39797C5.96818 3.34642 5.95973 3.29201 5.93215 3.2467L5.44515 2.4467L5.98845 2.2429C6.00735 2.2802 6.03215 2.315 6.06305 2.3459L6.15185 2.4347C6.45185 2.7347 6.85095 2.9 7.27525 2.9H7.45685C7.60035 2.90065 7.73928 2.84958 7.84819 2.75613C7.9571 2.66269 8.02869 2.53313 8.04985 2.3912L8.06565 2.2886L9.55315 3.4786C9.67469 3.57605 9.772 3.70033 9.83745 3.8417L10.1479 4.5146C10.2773 4.79352 10.4942 5.02256 10.7656 5.1669L11.9928 5.8166C12.0895 5.8678 12.3618 5.9217 12.3618 5.9217C12.4827 5.93698 12.5939 5.99579 12.6745 6.08713C12.7551 6.17847 12.7997 6.29607 12.7998 6.4179V7.0045C12.8001 7.20781 12.7227 7.40355 12.5834 7.5517L11.763 8.4267C11.6642 8.53234 11.5385 8.60915 11.3994 8.64894C11.2603 8.68872 11.113 8.68999 10.9733 8.6526L10.0512 8.4067C10.019 8.39818 9.9851 8.39784 9.95266 8.4057C9.92022 8.41355 9.89025 8.42936 9.86545 8.4517C9.85525 8.4612 8.79515 9.4 7.10005 9.4C5.38285 9.4 4.70455 7.4633 4.70005 7.2997C4.70001 7.24666 4.6789 7.1958 4.64137 7.15832C4.60383 7.12084 4.55294 7.09981 4.4999 7.09985C4.44686 7.09989 4.396 7.121 4.35852 7.15853C4.32104 7.19607 4.30001 7.24696 4.30005 7.3C4.30005 7.6425 5.14245 9.8 7.10005 9.8C8.69045 9.8 9.74875 9.059 10.0487 8.82L10.8705 9.0391C11.0801 9.09521 11.301 9.09333 11.5096 9.03366C11.7183 8.97399 11.9068 8.85876 12.055 8.7003L12.8754 7.8253C13.0844 7.6031 13.2005 7.30948 13.2 7.0045V6.418C13.1998 6.19871 13.1195 5.98704 12.9744 5.82264C12.8293 5.65825 12.6292 5.55239 12.4116 5.5249ZM7.45685 2.5H7.27525C7.11907 2.50044 6.96435 2.46989 6.82006 2.41012C6.67577 2.35035 6.54477 2.26255 6.43465 2.1518L6.34595 2.0629L6.89515 1.0256C6.96304 0.896979 7.06478 0.789353 7.18938 0.714345C7.31399 0.639336 7.45671 0.599797 7.60215 0.599998H9.70185C9.67962 0.61713 9.65472 0.630476 9.62815 0.639498L8.10895 1.1522C8.02203 1.18134 7.94483 1.23389 7.88584 1.30407C7.82686 1.37426 7.78839 1.45936 7.77465 1.55L7.65455 2.3305C7.64746 2.37779 7.62358 2.42095 7.58727 2.45208C7.55097 2.4832 7.50467 2.50021 7.45685 2.5Z" fill="#313131"/>
<path d="M8.70002 5.2C8.75307 5.2 8.80394 5.17893 8.84145 5.14142C8.87895 5.10391 8.90002 5.05304 8.90002 5V4.7C8.90002 4.4243 8.67572 4.2 8.40002 4.2H7.60002C7.54698 4.2 7.49611 4.22107 7.4586 4.25858C7.4211 4.29608 7.40002 4.34695 7.40002 4.4C7.40002 4.45304 7.4211 4.50391 7.4586 4.54142C7.49611 4.57893 7.54698 4.6 7.60002 4.6H7.90002V4.8C7.90002 4.85304 7.9211 4.90391 7.9586 4.94142C7.99611 4.97893 8.04698 5 8.10002 5C8.15307 5 8.20394 4.97893 8.24145 4.94142C8.27895 4.90391 8.30002 4.85304 8.30002 4.8V4.6H8.40002C8.45512 4.6 8.50002 4.6449 8.50002 4.7V5C8.50002 5.05304 8.5211 5.10391 8.5586 5.14142C8.59611 5.17893 8.64698 5.2 8.70002 5.2ZM11.9752 6.2025C11.9241 6.18827 11.8695 6.19491 11.8233 6.22096C11.7771 6.247 11.7432 6.29032 11.7289 6.3414C11.6785 6.522 11.7003 6.7154 11.7887 6.872C11.877 7.0285 12.0312 7.1472 12.2117 7.1975C12.2628 7.2117 12.3175 7.20505 12.3637 7.17901C12.4098 7.15297 12.4438 7.10966 12.4581 7.0586C12.4723 7.0075 12.4657 6.95285 12.4396 6.90666C12.4136 6.86047 12.3702 6.82653 12.3191 6.8123C12.2399 6.7902 12.1736 6.7404 12.137 6.6755C12.1004 6.6107 12.0921 6.5281 12.1141 6.449C12.1212 6.42369 12.1232 6.39724 12.1201 6.37115C12.1169 6.34507 12.1087 6.31986 12.0958 6.29697C12.0829 6.27407 12.0656 6.25395 12.0449 6.23774C12.0242 6.22153 12.0005 6.20955 11.9752 6.2025Z" fill="#313131"/>
</svg>
