<svg width="16" height="16" viewBox="0 0 16 16" fill="none" xmlns="http://www.w3.org/2000/svg">
<path d="M9.36937 3.98999C9.31446 3.89069 9.2336 3.80816 9.13545 3.75121C9.03729 3.69426 8.92551 3.66504 8.81204 3.66666H7.21071C7.09146 3.66558 6.97428 3.69784 6.87239 3.7598C6.7705 3.82176 6.68795 3.91095 6.63404 4.01733C6.25671 4.77333 5.41404 6.60199 5.33871 7.99733L5.33793 7.99921L5.33604 7.99999L5.33415 8.00077L5.33337 8.00266V12.3333C5.33337 12.6869 5.47385 13.0261 5.7239 13.2761C5.97395 13.5262 6.31309 13.6667 6.66671 13.6667H9.33337C9.687 13.6667 10.0261 13.5262 10.2762 13.2761C10.5262 13.0261 10.6667 12.6869 10.6667 12.3333V8.00199L10.6647 7.99999L10.6627 7.99799C10.596 6.40466 9.75071 4.68799 9.36937 3.98999Z" stroke="#313131"/>
<path d="M9.66667 2.33333H6.33333C6.14924 2.33333 6 2.48257 6 2.66666V3.33333C6 3.51742 6.14924 3.66666 6.33333 3.66666H9.66667C9.85076 3.66666 10 3.51742 10 3.33333V2.66666C10 2.48257 9.85076 2.33333 9.66667 2.33333Z" stroke="#313131"/>
<path d="M6.66675 8.33333V12" stroke="#313131" stroke-linecap="round"/>
</svg>
