<svg width="16" height="16" viewBox="0 0 16 16" fill="none" xmlns="http://www.w3.org/2000/svg">
<path d="M7.97566 7.87685C9.02331 7.27721 9.73913 6.16069 9.73913 4.86955C9.73913 2.95164 8.17878 1.39128 6.26087 1.39128C4.34295 1.39128 2.7826 2.95164 2.7826 4.86955C2.7826 6.16069 3.49842 7.27721 4.54607 7.87685C1.92557 8.56486 0 10.7805 0 13.4066V14.2608C0 14.4528 0.155837 14.6087 0.347837 14.6087C0.539837 14.6087 0.695673 14.4528 0.695673 14.2608V13.4066C0.695641 10.6177 3.19236 8.34782 6.26087 8.34782C9.32937 8.34782 11.8261 10.6177 11.8261 13.4066V14.2608C11.8261 14.4528 11.9819 14.6087 12.1739 14.6087C12.3659 14.6087 12.5218 14.4528 12.5218 14.2608V13.4066C12.5217 10.7805 10.5962 8.56418 7.97566 7.87685ZM3.47827 4.86955C3.47827 3.33495 4.72627 2.08695 6.26087 2.08695C7.79546 2.08695 9.04346 3.33495 9.04346 4.86955C9.04346 6.40415 7.79546 7.65215 6.26087 7.65215C4.72627 7.65215 3.47827 6.40418 3.47827 4.86955Z" fill="#313131"/>
<path d="M12.6595 7.88591C13.4135 7.38713 13.913 6.53425 13.913 5.56522C13.913 4.03062 12.665 2.78262 11.1304 2.78262C10.9384 2.78262 10.7826 2.93846 10.7826 3.13046C10.7826 3.32246 10.9384 3.4783 11.1304 3.4783C12.281 3.4783 13.2174 4.41465 13.2174 5.56525C13.2174 6.71585 12.281 7.65221 11.1304 7.65221C10.9384 7.65221 10.7826 7.80804 10.7826 8.00004C10.7826 8.19204 10.9384 8.34782 11.1304 8.34782C13.4323 8.34782 15.3043 10.0779 15.3043 12.2052V12.8695C15.3043 13.0615 15.4601 13.2174 15.6521 13.2174C15.8441 13.2174 16 13.0615 16 12.8695V12.2052C16 10.1948 14.5975 8.48696 12.6595 7.88591Z" fill="#313131"/>
</svg>
