<svg width="16" height="16" viewBox="0 0 16 16" fill="none" xmlns="http://www.w3.org/2000/svg">
<g clip-path="url(#clip0_17_181)">
<path d="M15.8181 9.46181L14 4.96969C13.9442 4.83151 13.84 4.72484 13.7018 4.66666C13.5636 4.6109 13.4109 4.61333 13.2751 4.67393L11.8594 5.30424C11.6194 5.40606 11.4909 5.66787 11.5418 5.91757L11.166 6.12848C11.04 6.20121 10.8872 6.22787 10.7394 6.20848L8.12844 5.82303C7.9027 5.79098 7.67263 5.81055 7.45554 5.88025C7.23846 5.94995 7.04 6.06798 6.87511 6.22545L6.68359 6.40969H5.2339C5.16844 6.40969 5.10299 6.38545 5.0545 6.34181L4.92602 6.23272C5.01572 6.01212 4.95511 5.75515 4.76117 5.60242L3.66541 4.73696C3.54905 4.64484 3.4036 4.60363 3.25572 4.62545C3.11026 4.64484 2.97693 4.72484 2.88966 4.84121L0.249656 8.41939C0.0751101 8.65454 0.116322 8.98424 0.34905 9.1709L1.44238 10.0339C1.49994 10.0795 1.56615 10.1128 1.63699 10.132C1.70784 10.1512 1.78184 10.1558 1.8545 10.1454C1.92681 10.1359 1.99639 10.1116 2.05894 10.0741C2.12149 10.0365 2.17567 9.98657 2.21814 9.92727L2.22784 9.91515L2.38541 10.0339C2.47753 10.0994 2.53087 10.2109 2.53087 10.3273V10.9794L2.1236 11.503C1.75996 11.9758 1.84238 12.657 2.31269 13.0206C2.5042 13.1709 2.73693 13.2509 2.97693 13.2509C3.02056 13.2509 3.06663 13.2485 3.11026 13.2436C3.15875 13.2364 3.20481 13.2242 3.25087 13.2121C3.25087 13.2267 3.24844 13.2388 3.24844 13.2533C3.24844 13.5636 3.38905 13.8545 3.63147 14.0533C3.82056 14.2036 4.04844 14.2788 4.2739 14.2788C4.4145 14.2788 4.55511 14.2473 4.68602 14.1915V14.2036C4.71996 14.4582 4.85329 14.6836 5.04723 14.8267L5.09087 14.8606C5.29256 15.0103 5.54537 15.0739 5.7939 15.0376C5.89814 15.023 5.99269 14.9867 6.08481 14.9406C6.13572 15.2 6.2836 15.423 6.5042 15.5636L6.53572 15.5854C6.64133 15.6554 6.75989 15.7034 6.88439 15.7267C7.00889 15.7501 7.1368 15.7482 7.26056 15.7212C7.51511 15.6679 7.73087 15.5176 7.8739 15.2994L7.91511 15.2364C8.08723 15.3673 8.29329 15.4351 8.5139 15.4351C8.77329 15.4351 9.02784 15.3285 9.21208 15.1467C9.31828 15.0404 9.39898 14.9115 9.44811 14.7696C9.49725 14.6276 9.51352 14.4764 9.49572 14.3273C9.64374 14.3488 9.79477 14.3346 9.93617 14.2858C10.0776 14.2371 10.2052 14.1551 10.3085 14.0469C10.4117 13.9387 10.4876 13.8073 10.5296 13.6637C10.5717 13.5202 10.5788 13.3687 10.5503 13.2218C10.8727 13.2412 11.1903 13.1127 11.4084 12.8533C11.508 12.7358 11.58 12.5976 11.6195 12.4487C11.6589 12.2999 11.6646 12.1441 11.6363 11.9927C11.9297 12.0242 12.2278 11.9224 12.446 11.7091C12.686 11.4691 12.7757 11.1297 12.7103 10.8097C12.7224 10.8073 12.7345 10.8097 12.7466 10.8073L13.5272 10.6982C13.6266 10.7879 13.76 10.8388 13.8933 10.8388C13.9684 10.8388 14.0436 10.8242 14.1139 10.7903L15.5345 10.1624C15.8012 10.0461 15.9272 9.73575 15.8181 9.46181ZM1.79632 9.73333C1.77919 9.73588 1.76172 9.73483 1.74502 9.73023C1.72832 9.72564 1.71277 9.71761 1.69935 9.70666L0.610868 8.84606C0.584869 8.82532 0.567848 8.79537 0.563335 8.76242C0.558821 8.72947 0.567161 8.69605 0.586625 8.66909L3.2242 5.08363C3.25087 5.04727 3.28723 5.03757 3.30905 5.03515H3.32602C3.34784 5.03515 3.37693 5.03999 3.40359 5.06181L4.50178 5.92727C4.55511 5.96848 4.56481 6.04606 4.52602 6.09696L4.49208 6.14303L4.48481 6.1503L2.96723 8.20605L2.96238 8.2109L2.6739 8.60363L2.01208 9.5006C2.00966 9.50303 2.00966 9.50545 2.00966 9.50545L1.87875 9.68484C1.8545 9.71878 1.82056 9.7309 1.79632 9.73333ZM3.06178 12.8291C2.97523 12.8398 2.88742 12.8334 2.80338 12.8101C2.71934 12.7868 2.64073 12.7471 2.57208 12.6933C2.28602 12.4703 2.23269 12.0509 2.45814 11.76L3.23875 10.7539C3.36966 10.5842 3.56602 10.497 3.76481 10.497C3.90541 10.497 4.04844 10.543 4.16966 10.6351C4.33208 10.7636 4.42663 10.9551 4.42663 11.1612C4.42663 11.3091 4.37814 11.4497 4.28602 11.5709L3.50541 12.577C3.3939 12.7176 3.23632 12.8073 3.06178 12.8291ZM3.89572 13.7285C3.75026 13.6097 3.66784 13.4376 3.66784 13.2533C3.66784 13.12 3.7139 12.9891 3.8036 12.8751L4.58178 11.8715C4.68117 11.7406 4.82663 11.6606 4.98905 11.6412C5.01329 11.6364 5.03753 11.6364 5.05935 11.6364C5.19753 11.6364 5.33329 11.6848 5.45935 11.7867C5.72117 11.9976 5.76238 12.383 5.55147 12.6448L4.7539 13.6388C4.65081 13.7627 4.50338 13.8415 4.34305 13.8582C4.18273 13.875 4.0222 13.8284 3.89572 13.7285ZM5.73087 14.623C5.59026 14.6424 5.45208 14.6085 5.35269 14.5358L5.31147 14.5018C5.25446 14.4601 5.20656 14.4072 5.17071 14.3464C5.13486 14.2855 5.11181 14.218 5.10299 14.1479C5.09355 14.0767 5.09856 14.0044 5.11772 13.9353C5.13688 13.8661 5.1698 13.8016 5.2145 13.7454L5.80602 13.0133C5.85555 12.9517 5.91832 12.9021 5.98967 12.8681C6.06102 12.8341 6.13911 12.8166 6.21814 12.817C6.32723 12.817 6.43875 12.8509 6.53087 12.9212C6.6642 13.0206 6.74178 13.1758 6.74178 13.343C6.74178 13.4521 6.71026 13.5539 6.64966 13.6412C6.64481 13.6461 6.64238 13.6533 6.63753 13.6606C6.63511 13.663 6.63511 13.6654 6.63269 13.6654L6.62299 13.68L6.07269 14.417C5.99511 14.5309 5.87147 14.6036 5.73087 14.623ZM7.79875 14.64L7.51996 15.0739C7.43996 15.1976 7.31632 15.2824 7.17087 15.3139C7.02784 15.343 6.88238 15.3164 6.76359 15.2388L6.73208 15.217C6.6036 15.1345 6.51875 15.0061 6.49208 14.8582C6.46541 14.7103 6.49693 14.5624 6.58663 14.4388C6.73208 14.2473 6.89693 14.0339 6.96238 13.9539C6.9745 13.9418 6.98663 13.9273 6.99875 13.9176C7.00117 13.9176 7.00117 13.9151 7.00117 13.9151C7.00359 13.9127 7.00844 13.9103 7.01087 13.9079C7.02299 13.8982 7.03269 13.8885 7.05208 13.8764C7.2339 13.7673 7.46178 13.7673 7.63875 13.8812C7.7939 13.9806 7.88844 14.1551 7.88844 14.3442C7.88602 14.4509 7.85693 14.5527 7.79875 14.64ZM12.1503 11.4133C11.9515 11.6097 11.629 11.6339 11.406 11.4715L10.0121 10.4412L9.46905 10.0388C9.42417 10.0062 9.36832 9.99257 9.31348 10.0007C9.25864 10.0089 9.20918 10.0382 9.17572 10.0824C9.10784 10.1745 9.12723 10.3054 9.21935 10.3758L10.1697 11.0788L10.9745 11.6751C11.1151 11.7794 11.2048 11.9321 11.2266 12.1067C11.2484 12.2812 11.1975 12.4509 11.0836 12.5867C10.9818 12.706 10.8392 12.783 10.6836 12.8028C10.5281 12.8225 10.3707 12.7835 10.2424 12.6933L8.57208 11.4982C8.54989 11.482 8.5247 11.4704 8.49797 11.4641C8.47125 11.4578 8.44353 11.4568 8.41645 11.4613C8.38936 11.4659 8.36344 11.4757 8.34021 11.4904C8.31699 11.505 8.29692 11.5242 8.28117 11.5467C8.21329 11.6412 8.23511 11.7721 8.32966 11.8376L9.92723 12.9794C10.0509 13.0691 10.1284 13.2073 10.143 13.3576C10.1551 13.5103 10.1018 13.6582 9.99269 13.7673C9.81087 13.9515 9.51753 13.9685 9.31147 13.8133L7.73572 12.5867C7.7141 12.5697 7.68934 12.5572 7.66287 12.5499C7.63641 12.5425 7.60875 12.5405 7.58149 12.5439C7.55423 12.5473 7.52791 12.556 7.50404 12.5696C7.48017 12.5832 7.45921 12.6013 7.44238 12.623C7.37208 12.7127 7.38663 12.8461 7.47632 12.9164L8.85329 13.9927C8.9842 14.0945 9.06662 14.2473 9.07632 14.4121C9.08844 14.5794 9.02784 14.737 8.90905 14.8558C8.71511 15.0497 8.38784 15.0715 8.16966 14.9139C8.16966 14.9139 8.15753 14.8994 8.14056 14.8824L8.14541 14.8751C8.24723 14.72 8.30056 14.5382 8.30056 14.3467C8.30056 14.0145 8.13572 13.7115 7.85935 13.5321C7.64844 13.3964 7.39632 13.3551 7.15632 13.3988C7.15632 13.3818 7.15875 13.3648 7.15875 13.3479C7.15875 13.0448 7.02056 12.7685 6.78056 12.5891C6.57208 12.4339 6.32238 12.3758 6.08481 12.4097C6.13329 12.0606 6.00481 11.6945 5.70178 11.4497C5.59568 11.3629 5.47314 11.2983 5.3415 11.26C5.20987 11.2217 5.07184 11.2103 4.93572 11.2267C4.89935 11.2315 4.86541 11.2412 4.83147 11.2485C4.8339 11.2194 4.83875 11.1927 4.83875 11.1636C4.83875 10.8267 4.68844 10.5164 4.42178 10.3079C4.02178 9.99757 3.47147 10.0145 3.08844 10.3151C3.08844 10.3127 3.08844 10.3127 3.09087 10.3103C3.08602 10.3151 3.08117 10.32 3.07632 10.3224C3.05208 10.3418 3.02784 10.3661 3.00602 10.3879C2.98663 10.4073 2.96481 10.4242 2.94541 10.4461V10.3297C2.94541 10.0776 2.82663 9.84242 2.63026 9.69939L2.47026 9.5806L2.77572 9.16606L3.16117 8.64242L3.28238 8.47999C3.28966 8.47272 3.2945 8.46545 3.30178 8.45818L4.68602 6.57939L4.77572 6.65454C4.89935 6.76363 5.06178 6.82424 5.22905 6.82424H6.24238L5.66056 7.38181C5.52481 7.51272 5.44966 7.68969 5.44966 7.87878C5.44966 8.1503 5.59996 8.3903 5.84481 8.50424C6.14041 8.64507 6.46476 8.7151 6.79213 8.70879C7.11951 8.70248 7.44091 8.61999 7.73087 8.46787L7.98299 8.33696C8.22056 8.2109 8.51147 8.23999 8.72238 8.40969L11.183 10.3806C11.326 10.4921 11.4763 10.5842 11.6315 10.6521C11.6824 10.6739 11.7381 10.6958 11.7866 10.7127C11.8303 10.7297 11.8763 10.7442 11.9151 10.7539C11.9684 10.7709 12.0218 10.783 12.0678 10.7903C12.1309 10.8024 12.1915 10.8121 12.2424 10.8145C12.2666 10.817 12.2884 10.817 12.3127 10.8194L12.286 10.8267C12.3539 11.0279 12.3054 11.2582 12.1503 11.4133ZM12.6884 10.3951C12.6084 10.4048 12.5212 10.4097 12.4218 10.4073C12.3806 10.4073 12.3418 10.4048 12.286 10.3976C12.2375 10.3951 12.1939 10.3854 12.1406 10.3758C12.1026 10.3704 12.0653 10.3615 12.029 10.3491C11.9951 10.3418 11.9636 10.3297 11.9321 10.3176C11.8884 10.303 11.8424 10.2836 11.8012 10.2667C11.68 10.2133 11.5587 10.1406 11.4448 10.0509L9.11026 8.17939L8.9842 8.08C8.78541 7.92 8.54299 7.83757 8.29814 7.83757C8.12359 7.83757 7.94905 7.87878 7.79147 7.96363L7.53935 8.09454C7.30731 8.21681 7.04989 8.28312 6.78765 8.28818C6.52541 8.29323 6.26563 8.23688 6.02905 8.12363C5.91511 8.0703 5.8739 7.96121 5.8739 7.87636C5.8739 7.82545 5.88844 7.74787 5.95632 7.68242L7.16602 6.52363C7.40359 6.29575 7.74056 6.18666 8.06784 6.23515L10.6812 6.6206C10.9212 6.65454 11.1684 6.60848 11.3721 6.49212L11.6921 6.31272L12.206 7.58303L13.3115 10.3079L12.6884 10.3951ZM15.3648 9.78424L13.9418 10.4121C13.886 10.4364 13.8181 10.417 13.7769 10.3467L12.2642 6.6109L12.0678 6.1309L11.9563 5.85454C11.9297 5.79151 11.9587 5.71878 12.0242 5.68969L13.4448 5.05939C13.4763 5.04484 13.5127 5.04484 13.5442 5.05696C13.5757 5.06909 13.6 5.09333 13.6121 5.12727L15.4303 9.62181C15.4545 9.68242 15.4254 9.75515 15.3648 9.78424Z" fill="#313131"/>
<path d="M7.99992 5.24121C9.37446 5.24121 10.492 4.12364 10.492 2.74909C10.492 1.37455 9.37446 0.254547 7.99992 0.254547C6.62537 0.254547 5.50537 1.37212 5.50537 2.74909C5.5078 4.12364 6.62537 5.24121 7.99992 5.24121ZM7.99992 0.673941C9.14416 0.673941 10.0726 1.60485 10.0726 2.74909C10.0726 3.89334 9.14174 4.82182 7.99992 4.82182C6.85567 4.82182 5.92477 3.89091 5.92477 2.74909C5.92477 1.60485 6.85567 0.673941 7.99992 0.673941Z" fill="#313131"/>
<path d="M7.49081 3.50788C7.5296 3.54667 7.58293 3.56848 7.63869 3.56848C7.69445 3.56848 7.74778 3.54667 7.78657 3.50788L9.00596 2.28848C9.08839 2.20606 9.08839 2.07515 9.00596 1.99273C8.92354 1.9103 8.79263 1.9103 8.71021 1.99273L7.63869 3.06424L7.29202 2.71757C7.2096 2.63515 7.07869 2.63515 6.99627 2.71757C6.91384 2.8 6.91384 2.93091 6.99627 3.01333L7.49081 3.50788Z" fill="#313131"/>
</g>
<defs>
<clipPath id="clip0_17_181">
<rect width="16" height="16" fill="white"/>
</clipPath>
</defs>
</svg>
