<svg width="14" height="16" viewBox="0 0 14 16" fill="none" xmlns="http://www.w3.org/2000/svg">
<path fill-rule="evenodd" clip-rule="evenodd" d="M9.55638 1.61016H12.4464C12.5127 1.61016 12.5763 1.6365 12.6232 1.68338C12.67 1.73027 12.6964 1.79386 12.6964 1.86016V15.1667C12.6964 15.233 12.67 15.2966 12.6232 15.3434C12.5763 15.3903 12.5127 15.4167 12.4464 15.4167H1.55371C1.48741 15.4167 1.42382 15.3903 1.37693 15.3434C1.33005 15.2966 1.30371 15.233 1.30371 15.1667V1.86016C1.30371 1.79386 1.33005 1.73027 1.37693 1.68338C1.42382 1.6365 1.48741 1.61016 1.55371 1.61016H3.86038C3.9251 1.6078 3.98639 1.58042 4.03134 1.5338C4.0763 1.48717 4.10141 1.42493 4.10141 1.36016C4.10141 1.29539 4.0763 1.23315 4.03134 1.18652C3.98639 1.1399 3.9251 1.11253 3.86038 1.11016H1.55371C1.3548 1.11016 1.16403 1.18918 1.02338 1.32983C0.882729 1.47048 0.803711 1.66125 0.803711 1.86016V15.1667C0.803711 15.3656 0.882729 15.5563 1.02338 15.697C1.16403 15.8376 1.3548 15.9167 1.55371 15.9167H12.4464C12.6453 15.9167 12.8361 15.8376 12.9767 15.697C13.1174 15.5563 13.1964 15.3656 13.1964 15.1667V1.86016C13.1964 1.66125 13.1174 1.47048 12.9767 1.32983C12.8361 1.18918 12.6453 1.11016 12.4464 1.11016H9.53821C9.50687 0.991421 9.43711 0.886389 9.33982 0.811442C9.24254 0.736495 9.12319 0.695844 9.00038 0.695828H8.99988C8.98503 0.695828 8.97078 0.689928 8.96028 0.679426C8.94978 0.668924 8.94388 0.65468 8.94388 0.639828V0.639328C8.94388 0.566313 8.9295 0.494013 8.90156 0.426556C8.87361 0.359099 8.83266 0.297806 8.78103 0.246177C8.7294 0.194547 8.66811 0.153593 8.60065 0.125651C8.53319 0.0977096 8.46089 0.0833282 8.38788 0.0833282H5.61221C5.46475 0.0833282 5.32333 0.141907 5.21906 0.246177C5.11479 0.350447 5.05621 0.491868 5.05621 0.639328V0.639828C5.05621 0.65468 5.05031 0.668924 5.03981 0.679426C5.02931 0.689928 5.01506 0.695828 5.00021 0.695828H4.99971C4.85225 0.695828 4.71083 0.754407 4.60656 0.858677C4.50229 0.962947 4.44371 1.10437 4.44371 1.25183V2.05383C4.44371 2.20854 4.50517 2.35691 4.61457 2.46631C4.72396 2.5757 4.87233 2.63716 5.02704 2.63716H8.97305C9.12775 2.63716 9.27613 2.5757 9.38552 2.46631C9.49492 2.35691 9.55638 2.20854 9.55638 2.05383V1.61016ZM9.75004 12.236H9.16638C9.08976 12.236 9.01389 12.251 8.94309 12.2803C8.8723 12.3096 8.80798 12.3526 8.7538 12.4068C8.69963 12.4609 8.65666 12.5253 8.62736 12.596C8.59806 12.6668 8.583 12.7427 8.58305 12.8193V14.0893C8.58318 14.244 8.64468 14.3923 8.75405 14.5017C8.86341 14.611 9.01171 14.6725 9.16638 14.6727H10.4364C10.5911 14.6727 10.7395 14.6112 10.8489 14.5018C10.9583 14.3924 11.0197 14.244 11.0197 14.0893V13.5058C11.0173 13.4411 10.99 13.3798 10.9433 13.3349C10.8967 13.2899 10.8345 13.2648 10.7697 13.2648C10.7049 13.2648 10.6427 13.2899 10.5961 13.3349C10.5494 13.3798 10.5221 13.4411 10.5197 13.5058V14.0893C10.5197 14.1114 10.5109 14.1326 10.4953 14.1483C10.4797 14.1639 10.4585 14.1727 10.4364 14.1727H9.16638C9.14428 14.1726 9.12308 14.1639 9.10738 14.1483C9.09182 14.1326 9.08308 14.1114 9.08305 14.0893V12.8193C9.08318 12.7973 9.092 12.7761 9.1076 12.7605C9.1232 12.7449 9.14432 12.7361 9.16638 12.736H9.75004C9.81635 12.736 9.87994 12.7097 9.92682 12.6628C9.97371 12.6159 10 12.5523 10 12.486C10 12.4197 9.97371 12.3561 9.92682 12.3092C9.87994 12.2623 9.81635 12.236 9.75004 12.236ZM2.80488 14.0143H5.31138C5.37768 14.0143 5.44127 13.988 5.48815 13.9411C5.53504 13.8942 5.56138 13.8306 5.56138 13.7643C5.56138 13.698 5.53504 13.6344 5.48815 13.5876C5.44127 13.5407 5.37768 13.5143 5.31138 13.5143H2.80488C2.73857 13.5143 2.67499 13.5407 2.6281 13.5876C2.58122 13.6344 2.55488 13.698 2.55488 13.7643C2.55488 13.8306 2.58122 13.8942 2.6281 13.9411C2.67499 13.988 2.73857 14.0143 2.80488 14.0143ZM9.97804 13.6312L11.4599 12.1493C11.4838 12.1263 11.5028 12.0987 11.5159 12.0682C11.529 12.0377 11.5359 12.0049 11.5362 11.9717C11.5365 11.9385 11.5302 11.9056 11.5176 11.8748C11.505 11.8441 11.4865 11.8162 11.463 11.7927C11.4395 11.7693 11.4116 11.7507 11.3809 11.7381C11.3501 11.7256 11.3172 11.7192 11.284 11.7195C11.2508 11.7198 11.218 11.7267 11.1875 11.7398C11.157 11.7529 11.1294 11.772 11.1064 11.7958L9.62455 13.2777C9.57772 13.3246 9.55142 13.3881 9.55142 13.4544C9.55142 13.5207 9.57772 13.5843 9.62455 13.6312C9.67145 13.678 9.73502 13.7043 9.80129 13.7043C9.86757 13.7043 9.93114 13.678 9.97804 13.6312ZM2.80488 12.736H7.24171C7.30644 12.7336 7.36772 12.7063 7.41267 12.6596C7.45763 12.613 7.48275 12.5508 7.48275 12.486C7.48275 12.4212 7.45763 12.359 7.41267 12.3124C7.36772 12.2657 7.30644 12.2384 7.24171 12.236H2.80488C2.73857 12.236 2.67499 12.2623 2.6281 12.3092C2.58122 12.3561 2.55488 12.4197 2.55488 12.486C2.55488 12.5523 2.58122 12.6159 2.6281 12.6628C2.67499 12.7097 2.73857 12.736 2.80488 12.736ZM9.75004 8.17766H9.16638C9.08976 8.17762 9.01389 8.19268 8.94309 8.22198C8.8723 8.25128 8.80798 8.29424 8.7538 8.34842C8.69963 8.40259 8.65666 8.46692 8.62736 8.53771C8.59806 8.6085 8.583 8.68438 8.58305 8.76099V10.031C8.58313 10.1857 8.64462 10.334 8.754 10.4434C8.86337 10.5528 9.0117 10.6142 9.16638 10.6143H10.4364C10.5911 10.6143 10.7395 10.5529 10.8489 10.4435C10.9583 10.3341 11.0197 10.1857 11.0197 10.031V9.44749C11.0173 9.38277 10.99 9.32148 10.9433 9.27653C10.8967 9.23158 10.8345 9.20646 10.7697 9.20646C10.7049 9.20646 10.6427 9.23158 10.5961 9.27653C10.5494 9.32148 10.5221 9.38277 10.5197 9.44749V10.031C10.5197 10.0531 10.5109 10.0743 10.4953 10.0899C10.4797 10.1055 10.4585 10.1143 10.4364 10.1143H9.16638C9.14428 10.1143 9.12308 10.1056 9.10738 10.09C9.09182 10.0743 9.08308 10.0531 9.08305 10.031V8.76099C9.08318 8.73893 9.092 8.71781 9.1076 8.70221C9.1232 8.68661 9.14432 8.67779 9.16638 8.67766H9.75004C9.81635 8.67766 9.87994 8.65132 9.92682 8.60444C9.97371 8.55755 10 8.49397 10 8.42766C10 8.36136 9.97371 8.29777 9.92682 8.25088C9.87994 8.204 9.81635 8.17766 9.75004 8.17766ZM2.80488 9.95599H5.31138C5.37768 9.95599 5.44127 9.92966 5.48815 9.88277C5.53504 9.83589 5.56138 9.7723 5.56138 9.70599C5.56138 9.63969 5.53504 9.5761 5.48815 9.52922C5.44127 9.48233 5.37768 9.45599 5.31138 9.45599H2.80488C2.74015 9.45836 2.67887 9.48573 2.63391 9.53236C2.58896 9.57898 2.56384 9.64123 2.56384 9.70599C2.56384 9.77076 2.58896 9.833 2.63391 9.87963C2.67887 9.92626 2.74015 9.95363 2.80488 9.95599ZM9.97804 9.57283L11.4599 8.09099C11.4838 8.06793 11.5028 8.04035 11.5159 8.00985C11.529 7.97934 11.5359 7.94654 11.5362 7.91334C11.5365 7.88015 11.5302 7.84723 11.5176 7.81651C11.505 7.78578 11.4865 7.75787 11.463 7.7344C11.4395 7.71092 11.4116 7.69236 11.3809 7.67979C11.3501 7.66722 11.3172 7.66089 11.284 7.66118C11.2508 7.66147 11.218 7.66837 11.1875 7.68147C11.157 7.69457 11.1294 7.71362 11.1064 7.73749L9.62455 9.21933C9.57772 9.26623 9.55142 9.3298 9.55142 9.39608C9.55142 9.46235 9.57772 9.52592 9.62455 9.57283C9.67145 9.61965 9.73502 9.64596 9.80129 9.64596C9.86757 9.64596 9.93114 9.61965 9.97804 9.57283ZM2.80488 8.67766H7.24171C7.30644 8.6753 7.36772 8.64792 7.41267 8.6013C7.45763 8.55467 7.48275 8.49243 7.48275 8.42766C7.48275 8.36289 7.45763 8.30065 7.41267 8.25402C7.36772 8.2074 7.30644 8.18003 7.24171 8.17766H2.80488C2.74015 8.18003 2.67887 8.2074 2.63391 8.25402C2.58896 8.30065 2.56384 8.36289 2.56384 8.42766C2.56384 8.49243 2.58896 8.55467 2.63391 8.6013C2.67887 8.64792 2.74015 8.6753 2.80488 8.67766ZM9.75004 4.11933H9.16638C9.01168 4.11946 8.86336 4.18098 8.75399 4.29039C8.64461 4.39979 8.58313 4.54813 8.58305 4.70283V5.97266C8.58313 6.12734 8.64462 6.27567 8.754 6.38504C8.86337 6.49442 9.0117 6.55591 9.16638 6.55599H10.4364C10.5911 6.55599 10.7395 6.49454 10.8489 6.38514C10.9583 6.27574 11.0197 6.12737 11.0197 5.97266V5.38916C11.0173 5.32444 10.99 5.26315 10.9433 5.2182C10.8967 5.17324 10.8345 5.14812 10.7697 5.14812C10.7049 5.14812 10.6427 5.17324 10.5961 5.2182C10.5494 5.26315 10.5221 5.32444 10.5197 5.38916V5.97266C10.5197 5.99476 10.5109 6.01596 10.4953 6.03159C10.4797 6.04721 10.4585 6.05599 10.4364 6.05599H9.16638C9.14428 6.05596 9.12308 6.04722 9.10738 6.03166C9.09182 6.01596 9.08308 5.99476 9.08305 5.97266V4.70283C9.08318 4.68075 9.09199 4.65961 9.10759 4.64399C9.12318 4.62836 9.1443 4.6195 9.16638 4.61933H9.75004C9.81635 4.61933 9.87994 4.59299 9.92682 4.5461C9.97371 4.49922 10 4.43563 10 4.36933C10 4.30302 9.97371 4.23944 9.92682 4.19255C9.87994 4.14567 9.81635 4.11933 9.75004 4.11933ZM2.80488 5.89766H5.31138C5.37768 5.89766 5.44127 5.87132 5.48815 5.82444C5.53504 5.77755 5.56138 5.71397 5.56138 5.64766C5.56138 5.58136 5.53504 5.51777 5.48815 5.47088C5.44127 5.424 5.37768 5.39766 5.31138 5.39766H2.80488C2.74015 5.40003 2.67887 5.4274 2.63391 5.47402C2.58896 5.52065 2.56384 5.58289 2.56384 5.64766C2.56384 5.71243 2.58896 5.77467 2.63391 5.8213C2.67887 5.86792 2.74015 5.8953 2.80488 5.89766ZM9.97804 5.51449L11.4599 4.03266C11.4838 4.0096 11.5028 3.98201 11.5159 3.95151C11.529 3.92101 11.5359 3.88821 11.5362 3.85501C11.5365 3.82182 11.5302 3.7889 11.5176 3.75817C11.505 3.72745 11.4865 3.69954 11.463 3.67606C11.4395 3.65259 11.4116 3.63403 11.3809 3.62146C11.3501 3.60889 11.3172 3.60256 11.284 3.60285C11.2508 3.60314 11.218 3.61003 11.1875 3.62314C11.157 3.63624 11.1294 3.65528 11.1064 3.67916L9.62455 5.16099C9.57772 5.2079 9.55142 5.27147 9.55142 5.33774C9.55142 5.40402 9.57772 5.46759 9.62455 5.51449C9.67145 5.56132 9.73502 5.58762 9.80129 5.58762C9.86757 5.58762 9.93114 5.56132 9.97804 5.51449ZM2.80488 4.61933H7.24171C7.30644 4.61696 7.36772 4.58959 7.41267 4.54296C7.45763 4.49634 7.48275 4.4341 7.48275 4.36933C7.48275 4.30456 7.45763 4.24232 7.41267 4.19569C7.36772 4.14907 7.30644 4.12169 7.24171 4.11933H2.80488C2.74015 4.12169 2.67887 4.14907 2.63391 4.19569C2.58896 4.24232 2.56384 4.30456 2.56384 4.36933C2.56384 4.4341 2.58896 4.49634 2.63391 4.54296C2.67887 4.58959 2.74015 4.61696 2.80488 4.61933ZM8.99988 1.19583H9.00038C9.03138 1.19583 9.05638 1.22099 9.05638 1.25183V2.05383C9.05638 2.07593 9.0476 2.09713 9.03197 2.11275C9.01634 2.12838 8.99515 2.13716 8.97305 2.13716H5.02704C5.00494 2.13716 4.98375 2.12838 4.96812 2.11275C4.95249 2.09713 4.94371 2.07593 4.94371 2.05383V1.25183C4.94371 1.22099 4.96871 1.19583 4.99971 1.19583H5.00021C5.14767 1.19583 5.28909 1.13725 5.39336 1.03298C5.49763 0.928709 5.55621 0.787289 5.55621 0.639828V0.639328C5.55621 0.608328 5.58121 0.583328 5.61221 0.583328H8.38788C8.41888 0.583328 8.44388 0.608328 8.44388 0.639328V0.639828C8.44388 0.787289 8.50246 0.928709 8.60673 1.03298C8.711 1.13725 8.85242 1.19583 8.99988 1.19583Z" fill="#313131"/>
</svg>
