<svg width="16" height="16" viewBox="0 0 16 16" fill="none" xmlns="http://www.w3.org/2000/svg">
<path fill-rule="evenodd" clip-rule="evenodd" d="M6.49714 1.27284C5.56183 1.86188 4.93964 2.904 4.93964 4.09022V6.74581C4.93964 8.45453 6.23058 9.86409 7.88933 10.0518V10.5134C7.88933 10.5997 7.95901 10.6696 8.04558 10.6696H8.97308C8.95933 11.1206 8.99589 11.6324 9.24933 12.0076C9.4437 12.2958 9.79589 12.5259 10.0443 12.758C10.4393 13.1267 10.6115 13.664 10.5371 14.1952C10.4325 14.9427 9.81402 15.3156 9.14495 15.3421C8.78839 15.3562 8.46308 15.2831 8.13526 14.9169C7.9687 14.7306 7.8962 14.4719 7.85401 14.1882C7.80745 13.8751 7.80026 13.532 7.77245 13.2067C7.70995 12.4744 7.53058 11.8388 6.75058 11.6961C6.63776 11.6754 6.48933 11.6733 6.3537 11.6805C6.26839 10.732 5.46995 9.98772 4.49933 9.98772C3.47183 9.98772 2.63745 10.8221 2.63745 11.8497C2.63745 12.8774 3.47183 13.7118 4.49933 13.7118C5.47901 13.7118 6.28276 12.9539 6.35589 11.993C6.47089 11.9858 6.59839 11.9859 6.69433 12.0034C7.31433 12.1169 7.4112 12.6514 7.4612 13.2333C7.49558 13.6341 7.50089 14.0611 7.58026 14.4299C7.63839 14.6998 7.73651 14.9398 7.90245 15.1252C8.30964 15.5805 8.71433 15.6718 9.15714 15.6543C9.97495 15.622 10.7187 15.152 10.8465 14.2386C10.935 13.6066 10.7275 12.9682 10.2578 12.5296C10.025 12.3124 9.69027 12.1024 9.50808 11.8327C9.28839 11.5074 9.2712 11.0613 9.28558 10.6696H10.2568C10.3431 10.6696 10.4131 10.5997 10.4131 10.5134V10.0518C12.0715 9.86409 13.3625 8.45453 13.3625 6.74581V4.09022C13.3625 2.90653 12.7431 1.86634 11.8112 1.27663V0.721156C11.8112 0.512875 11.6421 0.34375 11.4337 0.34375H10.9912C10.7831 0.34375 10.614 0.512875 10.614 0.721156V1.87441C10.614 2.08269 10.7831 2.25181 10.9912 2.25181H11.4337C11.6421 2.25181 11.8112 2.08269 11.8112 1.87441V1.65444C12.5618 2.203 13.05 3.09006 13.05 4.09022V6.74581C13.05 8.28187 11.8987 9.55122 10.4131 9.73713V9.32031C10.4131 9.23403 10.3431 9.16406 10.2568 9.16406H8.04558C7.95901 9.16406 7.88933 9.23403 7.88933 9.32031V9.73713C6.40339 9.55122 5.25214 8.28187 5.25214 6.74581V4.09022C5.25214 3.08741 5.74276 2.19831 6.49714 1.65003V1.87441C6.49714 2.08269 6.6662 2.25181 6.87464 2.25181H7.31683C7.52526 2.25181 7.69433 2.08269 7.69433 1.87441V0.721156C7.69433 0.512875 7.52526 0.34375 7.31683 0.34375H6.87464C6.6662 0.34375 6.49714 0.512875 6.49714 0.721156V1.27284ZM6.04901 11.8481C6.04808 10.9937 5.35401 10.3002 4.49933 10.3002C3.64433 10.3002 2.94995 10.9945 2.94995 11.8497C2.94995 12.705 3.64433 13.3993 4.49933 13.3993C5.35433 13.3993 6.04839 12.7057 6.04901 11.851V11.8481ZM4.91339 11.4357V10.9537C4.91339 10.9123 4.89693 10.8726 4.86762 10.8433C4.83832 10.814 4.79858 10.7975 4.75714 10.7975H4.24151C4.20007 10.7975 4.16033 10.814 4.13103 10.8433C4.10173 10.8726 4.08526 10.9123 4.08526 10.9537V11.4357H3.60339C3.51714 11.4357 3.44714 11.5057 3.44714 11.5919V12.1076C3.44714 12.149 3.4636 12.1887 3.4929 12.218C3.52221 12.2474 3.56195 12.2638 3.60339 12.2638H4.08526V12.7458C4.08526 12.8321 4.15526 12.902 4.24151 12.902H4.75714C4.84339 12.902 4.91339 12.8321 4.91339 12.7458V12.2638H5.39526C5.48183 12.2638 5.55151 12.1939 5.55151 12.1076V11.5919C5.55151 11.5057 5.48183 11.4357 5.39526 11.4357H4.91339ZM4.60089 11.5919C4.60089 11.6782 4.67089 11.7482 4.75714 11.7482H5.23901V11.9513H4.75714C4.67089 11.9513 4.60089 12.0213 4.60089 12.1076V12.5895H4.39776V12.1076C4.39776 12.0213 4.32776 11.9513 4.24151 11.9513H3.75964V11.7482H4.24151C4.32776 11.7482 4.39776 11.6782 4.39776 11.5919V11.11H4.60089V11.5919ZM8.20183 9.90784V10.3571H10.1006V9.91022C10.1003 9.90946 10.1003 9.9086 10.1006 9.90784V9.47656H8.20183V9.90784ZM9.15308 8.27369C9.72745 8.49662 10.539 8.18987 10.9921 7.53972C11.4809 6.83866 11.3571 6.04144 10.759 5.75537C10.6415 5.69919 10.5131 5.66628 10.379 5.6555C10.1168 5.19047 9.6637 4.88775 9.15277 4.88775C8.64214 4.88775 8.18901 5.19047 7.92683 5.6555C7.79276 5.66628 7.66433 5.69919 7.54683 5.75537C6.9487 6.04144 6.82495 6.83866 7.3137 7.53972C7.76683 8.18997 8.57839 8.49681 9.15308 8.27369ZM9.07995 7.96525C8.61745 8.18162 7.94651 7.90116 7.56995 7.361C7.20933 6.8435 7.23995 6.24847 7.68183 6.03731C7.78589 5.98747 7.90214 5.96441 8.02339 5.96406C8.0524 5.96395 8.08081 5.95576 8.10543 5.9404C8.13005 5.92505 8.1499 5.90313 8.16276 5.87712C8.36183 5.47569 8.7287 5.20025 9.15277 5.20025C9.57714 5.20025 9.94402 5.47569 10.1428 5.87712C10.1557 5.90317 10.1756 5.92511 10.2002 5.94047C10.2249 5.95583 10.2534 5.964 10.2825 5.96406C10.4037 5.96441 10.52 5.98747 10.624 6.03731C11.0656 6.24847 11.0965 6.8435 10.7359 7.361C10.3578 7.90328 9.68308 8.184 9.22026 7.96272L9.08589 7.96253L9.07995 7.96525ZM6.11276 4.82406C5.95995 5.0885 6.09964 5.487 6.46308 5.69694C6.82651 5.90684 7.24151 5.82837 7.39433 5.56397C7.54683 5.29953 7.40745 4.90103 7.0437 4.69112C6.68026 4.48119 6.26526 4.55966 6.11276 4.82406ZM12.1893 4.82406C12.0368 4.55966 11.6218 4.48119 11.2584 4.69112C10.8946 4.90103 10.7553 5.29953 10.9081 5.56397C11.0606 5.82837 11.4756 5.90684 11.839 5.69694C12.2028 5.487 12.3421 5.0885 12.1893 4.82406ZM11.9187 4.98031C11.9534 5.04019 11.9446 5.11366 11.9134 5.18409C11.8721 5.27672 11.7909 5.36381 11.6828 5.42628C11.5746 5.48878 11.4587 5.51544 11.3578 5.50481C11.2812 5.49672 11.2131 5.46756 11.1784 5.40772C11.144 5.34784 11.1528 5.27437 11.184 5.20394C11.2253 5.11134 11.3065 5.02422 11.4146 4.96175C11.5228 4.89928 11.6387 4.87259 11.7396 4.88322C11.8162 4.89131 11.8843 4.92047 11.9187 4.98031ZM6.38339 4.98031C6.41808 4.92047 6.48589 4.89131 6.56245 4.88322C6.66339 4.87259 6.77933 4.89928 6.88745 4.96175C6.99589 5.02422 7.07683 5.11134 7.11808 5.20394C7.14933 5.27437 7.15808 5.34784 7.1237 5.40772C7.08901 5.46756 7.02089 5.49672 6.94433 5.50481C6.8437 5.51544 6.72745 5.48878 6.61933 5.42628C6.5112 5.36381 6.42995 5.27672 6.3887 5.18409C6.35745 5.11366 6.3487 5.04019 6.38339 4.98031ZM10.7403 2.97487C10.3606 2.80903 9.84995 3.06834 9.62214 3.5905C9.39401 4.11266 9.55058 4.66334 9.93058 4.82919C10.3103 4.99503 10.8206 4.73572 11.0487 4.21356C11.2768 3.69141 11.12 3.14072 10.7403 2.97487ZM7.56183 2.97487C7.18214 3.14072 7.02526 3.69141 7.25339 4.21356C7.48151 4.73572 7.99183 4.99503 8.37151 4.82919C8.75151 4.66334 8.90808 4.11266 8.68026 3.5905C8.45214 3.06834 7.94151 2.80903 7.56183 2.97487ZM10.6153 3.26125C10.7034 3.29984 10.7656 3.37719 10.8025 3.47284C10.869 3.64434 10.8575 3.87081 10.7625 4.0885C10.6671 4.30616 10.509 4.46859 10.3381 4.53644C10.2428 4.57428 10.144 4.58137 10.0556 4.54281C9.96714 4.50422 9.90526 4.42688 9.86808 4.33119C9.80183 4.15972 9.81339 3.93322 9.90839 3.71556C10.0034 3.49791 10.1615 3.33544 10.3325 3.26763C10.4281 3.22978 10.5268 3.22269 10.6153 3.26125ZM7.68683 3.26125C7.77526 3.22269 7.87401 3.22978 7.96964 3.26763C8.14058 3.33544 8.2987 3.49791 8.3937 3.71556C8.4887 3.93322 8.50058 4.15972 8.43401 4.33119C8.39683 4.42688 8.33495 4.50422 8.24651 4.54281C8.15839 4.58137 8.05933 4.57428 7.96401 4.53644C7.79308 4.46859 7.63495 4.30616 7.53995 4.0885C7.44464 3.87081 7.43308 3.64434 7.49964 3.47284C7.53651 3.37719 7.5987 3.29984 7.68683 3.26125ZM7.38183 0.721156V1.87441C7.38183 1.91022 7.35276 1.93931 7.31683 1.93931H6.87464C6.8387 1.93931 6.80964 1.91022 6.80964 1.87441V0.721156C6.80964 0.685344 6.8387 0.65625 6.87464 0.65625H7.31683C7.35276 0.65625 7.38183 0.685344 7.38183 0.721156ZM11.4987 1.33247V0.721156C11.4987 0.685344 11.4696 0.65625 11.4337 0.65625H10.9912C10.9556 0.65625 10.9265 0.685344 10.9265 0.721156V1.87441C10.9265 1.91022 10.9556 1.93931 10.9912 1.93931H11.4337C11.4696 1.93931 11.4987 1.91022 11.4987 1.87441V1.39188C11.4948 1.37227 11.4948 1.35208 11.4987 1.33247Z" fill="#313131"/>
</svg>
