<svg width="16" height="16" viewBox="0 0 16 16" fill="none" xmlns="http://www.w3.org/2000/svg">
<path fill-rule="evenodd" clip-rule="evenodd" d="M11.9125 14.1344V14.9563C11.9125 15.1313 11.8406 15.2875 11.7281 15.4031C11.6125 15.5188 11.4563 15.5875 11.2812 15.5875H0.63125C0.45625 15.5875 0.3 15.5156 0.184375 15.4031C0.06875 15.2875 0 15.1313 0 14.9563V1.04376C0 0.868756 0.071875 0.712506 0.184375 0.596881C0.3 0.481256 0.45625 0.412506 0.63125 0.412506H8.2625C8.31875 0.412506 8.36875 0.437506 8.40312 0.478131L11.8531 3.89376C11.8906 3.93126 11.9094 3.97813 11.9094 4.02501V5.59376C13.0156 5.64063 14.0125 6.10938 14.7437 6.84063C15.5187 7.61563 15.9969 8.68438 15.9969 9.86251C15.9969 11.0406 15.5187 12.1125 14.7437 12.8844C14.0156 13.6188 13.0188 14.0875 11.9125 14.1344ZM1.74375 14.5156H10.1687C10.2719 14.5156 10.3562 14.4313 10.3562 14.3281C10.3562 14.225 10.2719 14.1406 10.1687 14.1406H1.74375C1.64062 14.1406 1.55625 14.225 1.55625 14.3281C1.55625 14.4313 1.64062 14.5156 1.74375 14.5156ZM1.74375 13.1688C1.64062 13.1688 1.55625 13.0844 1.55625 12.9813C1.55625 12.8781 1.64062 12.7938 1.74375 12.7938H8.6125C8.34062 12.5063 8.10938 12.1781 7.925 11.825H1.74375C1.64062 11.825 1.55625 11.7406 1.55625 11.6375C1.55625 11.5344 1.64062 11.45 1.74375 11.45H7.75313C7.63125 11.1438 7.54063 10.8188 7.49375 10.4813H1.74375C1.64062 10.4813 1.55625 10.3969 1.55625 10.2938C1.55625 10.1906 1.64062 10.1063 1.74375 10.1063H7.45625C7.45312 10.025 7.45 9.94376 7.45 9.86251C7.45 8.68126 7.92812 7.61251 8.70312 6.84063C9.43437 6.10938 10.4313 5.64063 11.5375 5.59376V4.25938H8.69687C8.52187 4.25938 8.36563 4.18751 8.25 4.07501C8.13437 3.95938 8.06563 3.80313 8.06563 3.62813V0.787506H0.63125C0.559375 0.787506 0.496875 0.815631 0.45 0.862506C0.403125 0.909381 0.375 0.971881 0.375 1.04376V14.9594C0.375 15.0313 0.403125 15.0938 0.45 15.1406C0.496875 15.1875 0.559375 15.2156 0.63125 15.2156H11.2812C11.3531 15.2156 11.4156 15.1875 11.4625 15.1406C11.5094 15.0938 11.5375 15.0313 11.5375 14.9594V14.1375C10.5781 14.0969 9.7 13.7375 9.00625 13.1656C8.9875 13.1719 8.97188 13.175 8.95312 13.175H1.74375V13.1688ZM1.925 7.56563L3.39687 8.76563V8.18126C3.39687 8.07813 3.48125 7.99376 3.58437 7.99376H6.28438V7.13438H3.58437C3.48125 7.13438 3.39687 7.05001 3.39687 6.94688V6.36251L1.925 7.56563ZM3.46563 9.30626C3.54688 9.37188 3.6625 9.35938 3.72813 9.27813C3.75625 9.24376 3.76875 9.20313 3.76875 9.15938V8.36876H6.46875C6.57188 8.36876 6.65625 8.28438 6.65625 8.18126V6.94688C6.65625 6.84376 6.57188 6.75938 6.46875 6.75938H3.76875V5.96876C3.76875 5.86563 3.68438 5.78126 3.58125 5.78126C3.53125 5.78126 3.48438 5.80001 3.45312 5.83438L1.50937 7.41876C1.42813 7.48438 1.41563 7.60313 1.48125 7.68126C1.49063 7.69376 1.5 7.70313 1.50937 7.70938L3.46563 9.30626ZM7.025 4.31563C7.03438 4.30626 7.04688 4.29688 7.05312 4.28751C7.11875 4.20626 7.10625 4.09063 7.025 4.02501L5.08125 2.44063C5.04688 2.40938 5.00313 2.38751 4.95312 2.38751C4.85 2.38751 4.76562 2.47188 4.76562 2.57501V3.36563H2.06562C1.9625 3.36563 1.87812 3.45001 1.87812 3.55313V4.78751C1.87812 4.89063 1.9625 4.97501 2.06562 4.97501H4.76562V5.76563C4.76562 5.80626 4.77813 5.85001 4.80625 5.88438C4.87188 5.96563 4.99062 5.97813 5.06875 5.91251L7.025 4.31563ZM5.14062 5.36876L6.6125 4.16876L5.14062 2.96876V3.55313C5.14062 3.65626 5.05625 3.74063 4.95312 3.74063H2.25312V4.60001H4.95312C5.05625 4.60001 5.14062 4.68438 5.14062 4.78751V5.36876ZM11.9125 12.8906V12.3563C12.2344 12.3188 12.5219 12.1813 12.7406 11.9781C13.0063 11.7344 13.1687 11.3938 13.1687 11.0219C13.1687 10.6469 13.0063 10.3094 12.7406 10.0656C12.5219 9.86251 12.2344 9.72813 11.9125 9.68751V7.74688C12.1344 7.78126 12.3344 7.88126 12.4844 8.02188C12.675 8.19688 12.7906 8.43751 12.7906 8.70313C12.7906 8.80626 12.875 8.89063 12.9781 8.89063C13.0812 8.89063 13.1656 8.80626 13.1656 8.70313C13.1656 8.32813 13.0031 7.99063 12.7375 7.74688C12.5188 7.54376 12.2312 7.40938 11.9094 7.36876V6.83438C11.9094 6.73126 11.825 6.64688 11.7219 6.64688C11.6188 6.64688 11.5344 6.73126 11.5344 6.83438V7.36876C11.2125 7.40626 10.925 7.54376 10.7063 7.74688C10.4406 7.99063 10.2781 8.33126 10.2781 8.70313C10.2781 9.07813 10.4406 9.41563 10.7063 9.65938C10.925 9.86251 11.2125 9.99688 11.5344 10.0375V11.9781C11.3125 11.9438 11.1125 11.8438 10.9625 11.7031C10.7719 11.5281 10.6562 11.2875 10.6562 11.0219C10.6562 10.9188 10.5719 10.8344 10.4688 10.8344C10.3656 10.8344 10.2812 10.9188 10.2812 11.0219C10.2812 11.3969 10.4438 11.7344 10.7094 11.9781C10.9281 12.1813 11.2156 12.3156 11.5375 12.3563V12.8906C11.5375 12.9938 11.6219 13.0781 11.725 13.0781C11.8281 13.0781 11.9125 12.9938 11.9125 12.8906ZM11.5375 9.66251V7.75001C11.3156 7.78438 11.1156 7.88438 10.9656 8.02501C10.775 8.20001 10.6594 8.44063 10.6594 8.70626C10.6594 8.97188 10.7781 9.21251 10.9656 9.38751C11.1156 9.52813 11.3156 9.62501 11.5375 9.66251ZM11.9125 10.0656V11.9781C12.1344 11.9438 12.3344 11.8438 12.4844 11.7031C12.675 11.5281 12.7906 11.2875 12.7906 11.0219C12.7906 10.7563 12.6719 10.5156 12.4844 10.3406C12.3344 10.2 12.1344 10.1031 11.9125 10.0656ZM14.4812 7.10626C13.775 6.40001 12.8 5.96251 11.725 5.96251C10.65 5.96251 9.67188 6.40001 8.96875 7.10626C8.2625 7.81251 7.825 8.78751 7.825 9.86251C7.825 10.9375 8.2625 11.9156 8.96875 12.6188C9.675 13.325 10.65 13.7625 11.725 13.7625C12.8 13.7625 13.7781 13.325 14.4812 12.6188C15.1875 11.9125 15.625 10.9375 15.625 9.86251C15.625 8.78751 15.1875 7.81251 14.4812 7.10626ZM11.3188 3.88438L8.44375 1.03751V3.62501C8.44375 3.69688 8.47188 3.75938 8.51875 3.80626C8.56563 3.85313 8.62813 3.88126 8.7 3.88126H11.3188V3.88438Z" fill="#313131"/>
</svg>
