<svg width="12" height="16" viewBox="0 0 12 16" fill="none" xmlns="http://www.w3.org/2000/svg">
<path fill-rule="evenodd" clip-rule="evenodd" d="M4.49714 1.27284C3.56183 1.86188 2.93964 2.904 2.93964 4.09022V6.74581C2.93964 8.45453 4.23058 9.86409 5.88933 10.0518V10.5134C5.88933 10.5997 5.95901 10.6696 6.04558 10.6696H6.97308C6.95933 11.1206 6.99589 11.6324 7.24933 12.0076C7.4437 12.2958 7.79589 12.5259 8.04433 12.758C8.43933 13.1267 8.61152 13.664 8.53714 14.1952C8.43245 14.9427 7.81402 15.3156 7.14495 15.3421C6.78839 15.3562 6.46308 15.2831 6.13526 14.9169C5.9687 14.7306 5.8962 14.4719 5.85401 14.1882C5.80745 13.8751 5.80026 13.532 5.77245 13.2067C5.70995 12.4744 5.53058 11.8388 4.75058 11.6961C4.63776 11.6754 4.48933 11.6733 4.3537 11.6805C4.26839 10.732 3.46995 9.98772 2.49933 9.98772C1.47183 9.98772 0.637451 10.8221 0.637451 11.8497C0.637451 12.8774 1.47183 13.7118 2.49933 13.7118C3.47901 13.7118 4.28276 12.9539 4.35589 11.993C4.47089 11.9858 4.59839 11.9859 4.69433 12.0034C5.31433 12.1169 5.4112 12.6514 5.4612 13.2333C5.49558 13.6341 5.50089 14.0611 5.58026 14.4299C5.63839 14.6998 5.73651 14.9398 5.90245 15.1252C6.30964 15.5805 6.71433 15.6718 7.15714 15.6543C7.97495 15.622 8.7187 15.152 8.84651 14.2386C8.93495 13.6066 8.72745 12.9682 8.25776 12.5296C8.02495 12.3124 7.69027 12.1024 7.50808 11.8327C7.28839 11.5074 7.2712 11.0613 7.28558 10.6696H8.25683C8.34308 10.6696 8.41308 10.5997 8.41308 10.5134V10.0518C10.0715 9.86409 11.3625 8.45453 11.3625 6.74581V4.09022C11.3625 2.90653 10.7431 1.86634 9.8112 1.27663V0.721156C9.8112 0.512875 9.64214 0.34375 9.4337 0.34375H8.9912C8.78308 0.34375 8.61401 0.512875 8.61401 0.721156V1.87441C8.61401 2.08269 8.78308 2.25181 8.9912 2.25181H9.4337C9.64214 2.25181 9.8112 2.08269 9.8112 1.87441V1.65444C10.5618 2.203 11.05 3.09006 11.05 4.09022V6.74581C11.05 8.28187 9.8987 9.55122 8.41308 9.73713V9.32031C8.41308 9.23403 8.34308 9.16406 8.25683 9.16406H6.04558C5.95901 9.16406 5.88933 9.23403 5.88933 9.32031V9.73713C4.40339 9.55122 3.25214 8.28187 3.25214 6.74581V4.09022C3.25214 3.08741 3.74276 2.19831 4.49714 1.65003V1.87441C4.49714 2.08269 4.6662 2.25181 4.87464 2.25181H5.31683C5.52526 2.25181 5.69433 2.08269 5.69433 1.87441V0.721156C5.69433 0.512875 5.52526 0.34375 5.31683 0.34375H4.87464C4.6662 0.34375 4.49714 0.512875 4.49714 0.721156V1.27284ZM4.04901 11.8481C4.04808 10.9937 3.35401 10.3002 2.49933 10.3002C1.64433 10.3002 0.949951 10.9945 0.949951 11.8497C0.949951 12.705 1.64433 13.3993 2.49933 13.3993C3.35433 13.3993 4.04839 12.7057 4.04901 11.851V11.8481ZM2.91339 11.4357V10.9537C2.91339 10.9123 2.89693 10.8726 2.86762 10.8433C2.83832 10.814 2.79858 10.7975 2.75714 10.7975H2.24151C2.20007 10.7975 2.16033 10.814 2.13103 10.8433C2.10173 10.8726 2.08526 10.9123 2.08526 10.9537V11.4357H1.60339C1.51714 11.4357 1.44714 11.5057 1.44714 11.5919V12.1076C1.44714 12.149 1.4636 12.1887 1.4929 12.218C1.52221 12.2474 1.56195 12.2638 1.60339 12.2638H2.08526V12.7458C2.08526 12.8321 2.15526 12.902 2.24151 12.902H2.75714C2.84339 12.902 2.91339 12.8321 2.91339 12.7458V12.2638H3.39526C3.48183 12.2638 3.55151 12.1939 3.55151 12.1076V11.5919C3.55151 11.5057 3.48183 11.4357 3.39526 11.4357H2.91339ZM2.60089 11.5919C2.60089 11.6782 2.67089 11.7482 2.75714 11.7482H3.23901V11.9513H2.75714C2.67089 11.9513 2.60089 12.0213 2.60089 12.1076V12.5895H2.39776V12.1076C2.39776 12.0213 2.32776 11.9513 2.24151 11.9513H1.75964V11.7482H2.24151C2.32776 11.7482 2.39776 11.6782 2.39776 11.5919V11.11H2.60089V11.5919ZM6.20183 9.90784V10.3571H8.10058V9.91022C8.10026 9.90946 8.10026 9.9086 8.10058 9.90784V9.47656H6.20183V9.90784ZM7.15308 8.27369C7.72745 8.49662 8.53901 8.18987 8.99214 7.53972C9.48089 6.83866 9.35714 6.04144 8.75902 5.75537C8.64151 5.69919 8.51308 5.66628 8.37901 5.6555C8.11683 5.19047 7.6637 4.88775 7.15277 4.88775C6.64214 4.88775 6.18901 5.19047 5.92683 5.6555C5.79276 5.66628 5.66433 5.69919 5.54683 5.75537C4.9487 6.04144 4.82495 6.83866 5.3137 7.53972C5.76683 8.18997 6.57839 8.49681 7.15308 8.27369ZM7.07995 7.96525C6.61745 8.18162 5.94651 7.90116 5.56995 7.361C5.20933 6.8435 5.23995 6.24847 5.68183 6.03731C5.78589 5.98747 5.90214 5.96441 6.02339 5.96406C6.0524 5.96395 6.08081 5.95576 6.10543 5.9404C6.13005 5.92505 6.1499 5.90313 6.16276 5.87712C6.36183 5.47569 6.7287 5.20025 7.15277 5.20025C7.57714 5.20025 7.94402 5.47569 8.14277 5.87712C8.15566 5.90317 8.17556 5.92511 8.20024 5.94047C8.22492 5.95583 8.25339 5.964 8.28245 5.96406C8.4037 5.96441 8.51995 5.98747 8.62401 6.03731C9.06558 6.24847 9.09651 6.8435 8.73589 7.361C8.35776 7.90328 7.68308 8.184 7.22026 7.96272L7.08589 7.96253L7.07995 7.96525ZM4.11276 4.82406C3.95995 5.0885 4.09964 5.487 4.46308 5.69694C4.82651 5.90684 5.24151 5.82837 5.39433 5.56397C5.54683 5.29953 5.40745 4.90103 5.0437 4.69112C4.68026 4.48119 4.26526 4.55966 4.11276 4.82406ZM10.1893 4.82406C10.0368 4.55966 9.62183 4.48119 9.25839 4.69112C8.89464 4.90103 8.75526 5.29953 8.90808 5.56397C9.06058 5.82837 9.47558 5.90684 9.83902 5.69694C10.2028 5.487 10.3421 5.0885 10.1893 4.82406ZM9.9187 4.98031C9.95339 5.04019 9.94464 5.11366 9.91339 5.18409C9.87214 5.27672 9.79089 5.36381 9.68277 5.42628C9.57464 5.48878 9.4587 5.51544 9.35777 5.50481C9.2812 5.49672 9.21308 5.46756 9.17839 5.40772C9.14401 5.34784 9.15277 5.27437 9.18402 5.20394C9.22527 5.11134 9.30651 5.02422 9.41464 4.96175C9.52276 4.89928 9.6387 4.87259 9.73964 4.88322C9.8162 4.89131 9.88433 4.92047 9.9187 4.98031ZM4.38339 4.98031C4.41808 4.92047 4.48589 4.89131 4.56245 4.88322C4.66339 4.87259 4.77933 4.89928 4.88745 4.96175C4.99589 5.02422 5.07683 5.11134 5.11808 5.20394C5.14933 5.27437 5.15808 5.34784 5.1237 5.40772C5.08901 5.46756 5.02089 5.49672 4.94433 5.50481C4.8437 5.51544 4.72745 5.48878 4.61933 5.42628C4.5112 5.36381 4.42995 5.27672 4.3887 5.18409C4.35745 5.11366 4.3487 5.04019 4.38339 4.98031ZM8.74026 2.97487C8.36058 2.80903 7.84995 3.06834 7.62214 3.5905C7.39401 4.11266 7.55058 4.66334 7.93058 4.82919C8.31026 4.99503 8.82058 4.73572 9.0487 4.21356C9.27683 3.69141 9.11995 3.14072 8.74026 2.97487ZM5.56183 2.97487C5.18214 3.14072 5.02526 3.69141 5.25339 4.21356C5.48151 4.73572 5.99183 4.99503 6.37151 4.82919C6.75151 4.66334 6.90808 4.11266 6.68026 3.5905C6.45214 3.06834 5.94151 2.80903 5.56183 2.97487ZM8.61526 3.26125C8.70339 3.29984 8.76558 3.37719 8.80245 3.47284C8.86901 3.64434 8.85745 3.87081 8.76245 4.0885C8.66714 4.30616 8.50902 4.46859 8.33808 4.53644C8.24276 4.57428 8.14401 4.58137 8.05558 4.54281C7.96714 4.50422 7.90526 4.42688 7.86808 4.33119C7.80183 4.15972 7.81339 3.93322 7.90839 3.71556C8.00339 3.49791 8.16152 3.33544 8.33245 3.26763C8.42808 3.22978 8.52683 3.22269 8.61526 3.26125ZM5.68683 3.26125C5.77526 3.22269 5.87401 3.22978 5.96964 3.26763C6.14058 3.33544 6.2987 3.49791 6.3937 3.71556C6.4887 3.93322 6.50058 4.15972 6.43401 4.33119C6.39683 4.42688 6.33495 4.50422 6.24651 4.54281C6.15839 4.58137 6.05933 4.57428 5.96401 4.53644C5.79308 4.46859 5.63495 4.30616 5.53995 4.0885C5.44464 3.87081 5.43308 3.64434 5.49964 3.47284C5.53651 3.37719 5.5987 3.29984 5.68683 3.26125ZM5.38183 0.721156V1.87441C5.38183 1.91022 5.35276 1.93931 5.31683 1.93931H4.87464C4.8387 1.93931 4.80964 1.91022 4.80964 1.87441V0.721156C4.80964 0.685344 4.8387 0.65625 4.87464 0.65625H5.31683C5.35276 0.65625 5.38183 0.685344 5.38183 0.721156ZM9.4987 1.33247V0.721156C9.4987 0.685344 9.46964 0.65625 9.4337 0.65625H8.9912C8.95558 0.65625 8.92651 0.685344 8.92651 0.721156V1.87441C8.92651 1.91022 8.95558 1.93931 8.9912 1.93931H9.4337C9.46964 1.93931 9.4987 1.91022 9.4987 1.87441V1.39188C9.4948 1.37227 9.4948 1.35208 9.4987 1.33247Z" fill="#313131"/>
</svg>
