<svg width="16" height="16" viewBox="0 0 16 16" fill="none" xmlns="http://www.w3.org/2000/svg">
<path d="M9.75897 10.4137C9.72679 10.4203 9.69622 10.4331 9.669 10.4514C9.64177 10.4698 9.61843 10.4933 9.6003 10.5207C9.58217 10.5481 9.56961 10.5787 9.56333 10.611C9.55705 10.6432 9.55718 10.6763 9.56372 10.7085C9.57522 10.765 9.58297 10.8217 9.58722 10.879C9.59188 10.9419 9.62013 11.0007 9.66631 11.0436C9.71248 11.0865 9.77317 11.1104 9.83622 11.1105C9.84247 11.1105 9.84872 11.1105 9.85497 11.1097C9.92107 11.1048 9.9825 11.0739 10.0258 11.0236C10.069 10.9734 10.0906 10.9081 10.0857 10.842C10.08 10.7637 10.0693 10.6859 10.0537 10.609C10.0472 10.5768 10.0345 10.5462 10.0161 10.519C9.99781 10.4917 9.97427 10.4683 9.94688 10.4502C9.91949 10.4321 9.88879 10.4196 9.85654 10.4134C9.82429 10.4071 9.79113 10.4071 9.75897 10.4137ZM3.02047 11.7207C2.9697 11.6797 2.90478 11.6604 2.83984 11.667C2.77489 11.6736 2.71518 11.7056 2.67372 11.756C2.63186 11.8067 2.6115 11.8718 2.61696 11.9373C2.62243 12.0029 2.65329 12.0637 2.70297 12.1067C2.72047 12.1222 2.77072 12.1782 2.77072 12.2337C2.77072 12.3001 2.79706 12.3636 2.84394 12.4105C2.89082 12.4574 2.95441 12.4837 3.02072 12.4837C3.08702 12.4837 3.15061 12.4574 3.19749 12.4105C3.24438 12.3636 3.27072 12.3001 3.27072 12.2337C3.27072 11.932 3.04622 11.7415 3.02047 11.7207ZM5.63747 7.55225C5.24747 7.55225 4.94197 7.928 4.94197 8.4075C4.94197 8.887 5.24747 9.263 5.63747 9.263C6.02747 9.263 6.33322 8.88725 6.33322 8.4075C6.33322 7.92775 6.02772 7.55225 5.63747 7.55225ZM5.63747 8.763C5.55772 8.763 5.44197 8.6245 5.44197 8.4075C5.44197 8.1905 5.55772 8.05225 5.63747 8.05225C5.71722 8.05225 5.83322 8.19075 5.83322 8.4075C5.83322 8.62425 5.71747 8.763 5.63747 8.763Z" fill="#313131"/>
<path d="M13.9407 2.4775H13.4032L13.4022 1.8165C13.6735 1.77675 13.8782 1.508 13.8782 1.168C13.8782 0.800748 13.64 0.513248 13.336 0.513248H11.9807C11.6767 0.513248 11.4385 0.800748 11.4385 1.168C11.4385 1.5065 11.6415 1.77475 11.9112 1.816L11.9122 2.47725H11.3785C11.044 2.47725 10.772 2.7495 10.772 3.084C10.772 3.4185 11.044 3.68825 11.3785 3.68825H11.5175V7.30575C11.5175 7.3452 11.5268 7.38408 11.5447 7.41924C11.5626 7.45439 11.5886 7.4848 11.6205 7.508L12.4087 8.0805V8.43575L11.5262 8.206C11.5436 8.15577 11.5578 8.1045 11.5687 8.0525C11.5777 8.00083 11.5702 7.94764 11.5472 7.9005C11.34 7.47475 11.0255 7.18825 10.6125 7.04925C10.3642 6.9655 10.1062 6.9465 9.86172 6.96075C11.1442 5.486 10.5867 3.37225 10.5797 3.34675C10.5659 3.29628 10.5365 3.25144 10.4958 3.21859C10.455 3.18575 10.405 3.16656 10.3527 3.16375C10.3004 3.16067 10.2485 3.17416 10.2042 3.2023C10.16 3.23044 10.1258 3.2718 10.1065 3.3205C9.35097 5.209 7.80922 5.37525 7.48997 5.3925C7.25822 5.2635 6.53647 4.956 5.38422 5.31175C5.30115 5.33852 5.22105 5.37379 5.14522 5.417C4.84897 5.35325 3.83972 5.04675 3.79747 3.8205C3.79551 3.76534 3.77536 3.71239 3.74015 3.66988C3.70494 3.62738 3.65666 3.59773 3.60283 3.58554C3.549 3.57335 3.49266 3.57932 3.44258 3.60251C3.39249 3.6257 3.35149 3.66482 3.32597 3.71375C3.31447 3.73575 2.22247 5.8865 3.96622 7.2C3.85147 7.52175 3.74897 7.8555 3.65047 8.17775C3.46797 8.775 3.29572 9.33875 3.10672 9.575C2.94372 9.77875 2.75697 9.95725 2.57622 10.1297C2.09947 10.585 1.60672 11.0557 1.61422 11.947C1.61797 12.3775 2.02547 13.0997 2.62597 13.4887C2.86497 13.6435 3.19747 13.789 3.60322 13.789C3.83622 13.789 4.09297 13.741 4.37047 13.6195C4.82264 13.4192 5.30818 13.3049 5.80222 13.2825C6.39772 13.2577 6.92322 13.303 7.36372 13.4162C7.65047 13.49 7.93972 13.4787 8.21747 13.406C8.55322 14.112 8.92347 15.2972 8.92747 15.3102C8.93147 15.323 8.93897 15.333 8.94472 15.3447C8.94997 15.3552 8.95372 15.3662 8.96022 15.376C8.96972 15.39 8.98147 15.4012 8.99347 15.4127C9.00097 15.42 9.00722 15.4282 9.01547 15.4347C9.02972 15.4457 9.04597 15.453 9.06222 15.4605C9.07022 15.4642 9.07747 15.4697 9.08597 15.4725C9.11097 15.481 9.13722 15.4857 9.16422 15.486L9.16597 15.4862C9.18397 15.4862 9.20272 15.4842 9.22097 15.4802C9.22697 15.479 9.23272 15.4767 9.23897 15.4752H9.24047L9.24122 15.475C12.627 14.6905 13.4117 9.168 13.4435 8.93275C13.4516 8.8722 13.4373 8.81077 13.4032 8.76004C13.3692 8.7093 13.3178 8.67274 13.2587 8.65725L12.9092 8.56625V8.08075L13.6975 7.508C13.7622 7.461 13.8005 7.37 13.8005 7.29V3.6885H13.9415C14.2747 3.6885 14.5457 3.4175 14.5457 3.08425C14.5457 2.751 14.2747 2.4775 13.9415 2.4775H13.9407ZM12.9022 1.82475L12.9035 2.47675H12.4122L12.411 1.82475H12.9022ZM11.9805 1.0135L13.3242 1.011C13.338 1.01875 13.3782 1.072 13.3782 1.16825C13.3782 1.2655 13.3365 1.31925 13.334 1.32475H12.1607C12.1575 1.32475 12.1542 1.3265 12.151 1.32675H11.994C11.9797 1.3195 11.9382 1.2655 11.9382 1.16825C11.9382 1.072 11.9782 1.01875 11.9805 1.0135ZM10.2095 4.22625C10.2622 5.0825 10.1025 6.46525 8.72172 7.25025C8.54097 7.2475 7.95922 7.20975 7.68947 6.84925C7.52347 6.6275 7.49797 6.30425 7.61272 5.88675C8.09322 5.843 9.35747 5.5965 10.2095 4.226V4.22625ZM3.51047 4.749C3.78172 5.31425 4.26372 5.63875 4.68947 5.80225C4.47997 6.04975 4.30697 6.36375 4.15747 6.711C3.45522 6.1095 3.40897 5.32825 3.51047 4.749ZM4.16922 13.162C3.72197 13.3577 3.29422 13.327 2.89747 13.0695C2.38647 12.7387 2.11572 12.1602 2.11397 11.943C2.10847 11.2985 2.43697 10.9562 2.86222 10.5485C3.61997 10.9602 4.51672 11.6862 4.90947 12.9115C4.65609 12.9739 4.40845 13.0577 4.16922 13.162ZM9.33072 14.9327C9.20597 14.5507 8.94147 13.775 8.68222 13.2217C9.25597 12.9145 9.73222 12.3557 9.95047 11.7557C9.97311 11.6935 9.97008 11.6247 9.94205 11.5647C9.91401 11.5046 9.86326 11.4581 9.80097 11.4355C9.73868 11.4129 9.66994 11.4159 9.60988 11.4439C9.54982 11.472 9.50336 11.5227 9.48072 11.585C9.18747 12.3897 8.29622 13.141 7.48772 12.9327C6.99972 12.807 6.42597 12.7575 5.78072 12.7837C5.65422 12.789 5.52822 12.8012 5.40247 12.8177C4.99297 11.4752 4.05872 10.6607 3.23347 10.1847C3.32297 10.092 3.41147 9.99475 3.49672 9.8885C3.74572 9.5775 3.92297 8.99725 4.12822 8.325C4.44422 7.29125 4.83722 6.005 5.53172 5.79025C6.34972 5.53775 6.88297 5.6715 7.12722 5.77225C6.97522 6.3395 7.02897 6.80325 7.29072 7.15125C7.71147 7.7105 8.51997 7.7505 8.74247 7.7505C8.77397 7.7505 8.79372 7.74975 8.79897 7.7495L8.80097 7.749C8.8354 7.74737 8.86911 7.7386 8.89997 7.72325C8.90847 7.71875 9.77122 7.29275 10.4545 7.52425C10.714 7.61225 10.9117 7.782 11.057 8.042C10.9777 8.3035 10.617 9.1305 9.24797 8.99125C9.10797 8.98025 8.98772 9.0775 8.97397 9.21475C8.97061 9.24742 8.97373 9.28042 8.98313 9.31189C8.99254 9.34335 9.00805 9.37266 9.02878 9.39812C9.04951 9.42359 9.07506 9.44473 9.10396 9.46032C9.13286 9.47591 9.16455 9.48566 9.19722 9.489C9.32222 9.50175 9.44072 9.50775 9.55322 9.50775C10.522 9.50775 11.0347 9.0625 11.3005 8.66475L12.4085 8.95325V10.244C12.4085 10.3567 12.4845 10.4482 12.5867 10.4795C12.1292 12.0775 11.1677 14.3645 9.33097 14.933L9.33072 14.9327ZM12.9117 9.084L12.9082 9.10275V9.083L12.9117 9.084ZM12.6582 7.6445L12.017 7.17875V4.98275H13.2995V7.17875L12.6582 7.6445ZM13.2995 4.48275H12.017V3.6885H13.2995V4.48275ZM13.9405 3.1885H13.5555C13.5532 3.1885 13.5515 3.18725 13.5495 3.18725H11.767C11.7647 3.18725 11.763 3.1885 11.761 3.1885H11.3782C11.3503 3.1887 11.3234 3.17785 11.3035 3.15832C11.2835 3.13879 11.2721 3.11216 11.2717 3.08425C11.2717 3.0255 11.3195 2.9775 11.3782 2.9775H13.9407C13.9992 2.9775 14.045 3.0245 14.045 3.08425C14.0451 3.09798 14.0425 3.11159 14.0373 3.1243C14.0321 3.13701 14.0244 3.14856 14.0147 3.15826C14.005 3.16797 13.9935 3.17564 13.9808 3.18084C13.9681 3.18603 13.9542 3.18863 13.9405 3.1885Z" fill="#313131"/>
</svg>
