<svg width="16" height="16" viewBox="0 0 16 16" fill="none" xmlns="http://www.w3.org/2000/svg">
<g clip-path="url(#clip0_22_216)">
<path d="M15.4275 3.3225L12.6775 0.5725C12.6298 0.526451 12.5662 0.500494 12.5 0.5H6.24996C6.05123 0.500594 5.86081 0.579802 5.72028 0.720326C5.57976 0.860849 5.50055 1.05127 5.49996 1.25V2.7625C4.15334 2.82562 2.88277 3.40499 1.95211 4.3803C1.02144 5.3556 0.502197 6.6519 0.502197 8C0.502197 9.3481 1.02144 10.6444 1.95211 11.6197C2.88277 12.595 4.15334 13.1744 5.49996 13.2375V14.75C5.50055 14.9487 5.57976 15.1392 5.72028 15.2797C5.86081 15.4202 6.05123 15.4994 6.24996 15.5H14.75C14.9487 15.4994 15.1391 15.4202 15.2796 15.2797C15.4202 15.1392 15.4994 14.9487 15.5 14.75V3.5C15.4995 3.43372 15.4735 3.37017 15.4275 3.3225ZM12.75 1.3525L14.6475 3.25H13C12.9337 3.25 12.8701 3.22366 12.8232 3.17678C12.7763 3.12989 12.75 3.0663 12.75 3V1.3525ZM0.999959 8C1.00159 6.78407 1.46889 5.61495 2.30584 4.7329C3.14278 3.85086 4.28579 3.32289 5.49996 3.2575V7.8975L2.22496 11.1725C1.43659 10.304 0.999881 9.17298 0.999959 8ZM2.57746 11.525L5.85246 8.25H10.4925C10.4469 9.1458 10.1482 10.0103 9.63095 10.7431C9.11371 11.4759 8.39919 12.0469 7.57038 12.3899C6.74156 12.7328 5.83247 12.8336 4.94867 12.6805C4.06487 12.5274 3.24263 12.1267 2.57746 11.525ZM15 14.75C15 14.8163 14.9736 14.8799 14.9267 14.9268C14.8799 14.9737 14.8163 15 14.75 15H6.24996C6.18366 15 6.12007 14.9737 6.07318 14.9268C6.0263 14.8799 5.99996 14.8163 5.99996 14.75V13.2375C7.34611 13.1725 8.61579 12.5926 9.54641 11.6177C10.477 10.6429 10.9974 9.34772 11 8C11 7.9337 10.9736 7.87011 10.9267 7.82322C10.8799 7.77634 10.8163 7.75 10.75 7.75H5.99996V1.25C5.99996 1.1837 6.0263 1.12011 6.07318 1.07322C6.12007 1.02634 6.18366 1 6.24996 1H12.25V3C12.2506 3.19873 12.3298 3.38915 12.4703 3.52967C12.6108 3.6702 12.8012 3.74941 13 3.75H15V14.75Z" fill="#313131"/>
<path d="M6.75 1.75C6.6837 1.75 6.62011 1.77634 6.57322 1.82322C6.52634 1.87011 6.5 1.9337 6.5 2V7C6.5 7.0663 6.52634 7.12989 6.57322 7.17678C6.62011 7.22366 6.6837 7.25 6.75 7.25H11.75C11.8163 7.25 11.8799 7.22366 11.9268 7.17678C11.9737 7.12989 12 7.0663 12 7C11.9985 5.60808 11.4449 4.27361 10.4606 3.28937C9.47639 2.30513 8.14192 1.75152 6.75 1.75ZM7 6.75V2.2575C8.17107 2.32038 9.27758 2.81388 10.1069 3.64315C10.9361 4.47242 11.4296 5.57893 11.4925 6.75H7ZM12.25 10C11.805 10 11.37 10.132 11 10.3792C10.63 10.6264 10.3416 10.9778 10.1713 11.389C10.001 11.8001 9.95642 12.2525 10.0432 12.689C10.13 13.1254 10.3443 13.5263 10.659 13.841C10.9737 14.1557 11.3746 14.37 11.811 14.4568C12.2475 14.5436 12.6999 14.499 13.111 14.3287C13.5222 14.1584 13.8736 13.87 14.1208 13.5C14.368 13.13 14.5 12.695 14.5 12.25C14.4991 11.6535 14.2617 11.0818 13.84 10.66C13.4182 10.2383 12.8465 10.0009 12.25 10ZM12.25 14C11.9039 14 11.5655 13.8974 11.2778 13.7051C10.99 13.5128 10.7657 13.2395 10.6332 12.9197C10.5008 12.5999 10.4661 12.2481 10.5336 11.9086C10.6011 11.5691 10.7678 11.2573 11.0126 11.0126C11.2573 10.7678 11.5691 10.6011 11.9086 10.5336C12.2481 10.4661 12.5999 10.5008 12.9197 10.6332C13.2395 10.7657 13.5128 10.99 13.7051 11.2778C13.8974 11.5655 14 11.9039 14 12.25C13.9995 12.714 13.8149 13.1588 13.4869 13.4869C13.1588 13.8149 12.714 13.9995 12.25 14Z" fill="#313131"/>
<path d="M11.75 12.6465L11.1767 12.0732L10.8232 12.4268L11.5732 13.1768C11.6201 13.2236 11.6837 13.2499 11.75 13.2499C11.8163 13.2499 11.8799 13.2236 11.9267 13.1768L13.4267 11.6768L13.0732 11.3232L11.75 12.6465ZM12.5 4.75H14.5V5.25H12.5V4.75ZM12.5 6.25H14.5V6.75H12.5V6.25ZM12.5 7.75H14.5V8.25H12.5V7.75Z" fill="#313131"/>
</g>
<defs>
<clipPath id="clip0_22_216">
<rect width="16" height="16" fill="white"/>
</clipPath>
</defs>
</svg>
