<svg width="16" height="16" viewBox="0 0 16 16" fill="none" xmlns="http://www.w3.org/2000/svg">
<g clip-path="url(#clip0_17_165)">
<path d="M12.8533 0.31497C12.4318 -0.087852 11.768 -0.087852 11.3466 0.31497C10.9306 0.731091 10.9306 1.40559 11.3466 1.82168L11.7933 2.26843L10.6305 3.43097L9.87689 2.67735C9.45954 2.2631 8.78618 2.2631 8.36885 2.67735L8.18239 2.86381C7.84006 3.20833 7.77398 3.74074 8.02176 4.15848L7.24309 4.93689L7.24043 4.93848L7.23855 4.94114L6.29926 5.87939H6.29767V5.88098L5.35597 6.8224L1.93274 10.2437C1.85804 10.3179 1.79879 10.4062 1.75842 10.5035C1.71805 10.6007 1.69735 10.705 1.69753 10.8103V13.8712L0.0813162 15.4871C0.0558487 15.5117 0.0355314 15.5411 0.0215507 15.5736C0.00756994 15.6061 0.00020593 15.6411 -0.000111361 15.6765C-0.000428651 15.7119 0.00630713 15.747 0.0197027 15.7797C0.0330983 15.8125 0.0528851 15.8422 0.077908 15.8672C0.102931 15.8923 0.132688 15.9121 0.165442 15.9255C0.198197 15.9388 0.233292 15.9456 0.268678 15.9453C0.304064 15.945 0.339032 15.9376 0.371541 15.9236C0.40405 15.9096 0.433448 15.8893 0.458018 15.8638L2.07531 14.2468H5.13405C5.23942 14.247 5.34377 14.2263 5.44107 14.1859C5.53837 14.1454 5.6267 14.0861 5.70093 14.0113L8.26151 11.4463V11.8307C8.26151 12.9559 8.26151 14.497 11.5048 15.9411C11.5741 15.9715 11.649 15.9872 11.7246 15.9872C11.8003 15.9872 11.8751 15.9715 11.9444 15.9411C15.1877 14.496 15.1877 12.9548 15.1877 11.8307V8.27027C15.1876 8.19425 15.1712 8.11915 15.1396 8.05C15.108 7.98085 15.062 7.91927 15.0046 7.86938C14.9473 7.81949 14.8799 7.78246 14.807 7.76076C14.7342 7.73907 14.6575 7.73322 14.5822 7.7436C14.1138 7.81517 13.6368 7.80914 13.1703 7.72576L13.294 7.60214C13.3934 7.50329 13.4723 7.38574 13.5262 7.25627C13.5801 7.1268 13.6078 6.98795 13.6078 6.84772C13.6078 6.7075 13.5801 6.56865 13.5262 6.43918C13.4723 6.30971 13.3934 6.19216 13.294 6.09331L12.5142 5.31464L13.677 4.1521L14.168 4.64306C14.2662 4.74503 14.3838 4.82641 14.5139 4.88242C14.6439 4.93843 14.7839 4.96795 14.9255 4.96927C15.0671 4.97059 15.2075 4.94367 15.3386 4.89009C15.4697 4.83651 15.5887 4.75734 15.6889 4.65721C15.789 4.55708 15.8682 4.43799 15.9218 4.30691C15.9753 4.17584 16.0023 4.03539 16.0009 3.89379C15.9996 3.75219 15.9701 3.61227 15.9141 3.48221C15.8581 3.35215 15.7767 3.23456 15.6747 3.13631L12.8533 0.31497ZM2.23032 11.1311L4.81432 13.7151H2.23032V11.1311ZM5.4057 13.5528L2.3912 10.5386L2.71778 10.2123L3.47195 10.9661C3.49652 10.9916 3.52592 11.0119 3.55843 11.0259C3.59093 11.0399 3.6259 11.0473 3.66129 11.0476C3.69668 11.0479 3.73177 11.0412 3.76452 11.0278C3.79728 11.0144 3.82704 10.9946 3.85206 10.9696C3.87708 10.9445 3.89687 10.9148 3.91026 10.882C3.92366 10.8493 3.9304 10.8142 3.93008 10.7788C3.92976 10.7434 3.9224 10.7084 3.90842 10.6759C3.89444 10.6434 3.87412 10.614 3.84865 10.5894L3.09477 9.83557L3.65978 9.27081L4.41394 10.0244C4.46426 10.0726 4.53142 10.0991 4.60106 10.0983C4.67069 10.0976 4.73725 10.0696 4.78649 10.0203C4.83573 9.97108 4.86373 9.90452 4.8645 9.83488C4.86527 9.76525 4.83875 9.69809 4.79061 9.64777L4.03673 8.89415L4.60202 8.32885L5.35565 9.08273C5.40597 9.13087 5.47313 9.15739 5.54276 9.15662C5.61239 9.15585 5.67895 9.12785 5.72819 9.07861C5.77743 9.02937 5.80544 8.96281 5.80621 8.89318C5.80698 8.82355 5.78046 8.75638 5.73232 8.70606L4.97869 7.95244L5.54424 7.38743L6.29786 8.14081C6.34818 8.18894 6.41535 8.21547 6.48498 8.2147C6.55461 8.21392 6.62117 8.18592 6.67041 8.13668C6.71965 8.08744 6.74765 8.02088 6.74842 7.95125C6.74919 7.88162 6.72267 7.81445 6.67453 7.76414L5.92091 7.01076L6.48645 6.44576L7.23954 7.19913C7.27221 7.2339 7.31362 7.25925 7.35944 7.27255C7.40526 7.28585 7.45381 7.2866 7.50002 7.27472C7.54623 7.26285 7.5884 7.23878 7.62213 7.20504C7.65586 7.1713 7.67992 7.12912 7.69178 7.0829C7.70362 7.03668 7.70283 6.98813 7.68949 6.94231C7.67615 6.8965 7.65076 6.85511 7.61595 6.82246L6.86287 6.06909L7.42816 5.50408L8.18153 6.25717C8.23152 6.30712 8.2993 6.33517 8.36997 6.33514C8.44063 6.33511 8.50839 6.30701 8.55834 6.25703C8.60829 6.20704 8.63634 6.13926 8.63631 6.06859C8.63628 5.99793 8.60819 5.93016 8.5582 5.88021L7.80537 5.12738L8.3712 4.56209L11.2165 7.4101C10.4885 7.76747 9.6657 7.88427 8.86695 7.74363C8.79165 7.73326 8.715 7.73913 8.64215 7.76083C8.5693 7.78253 8.50194 7.81956 8.44459 7.86945C8.38724 7.91933 8.34122 7.98091 8.30963 8.05005C8.27804 8.11919 8.26161 8.19429 8.26145 8.2703V10.6921L5.4057 13.5528ZM14.6549 8.27027V11.8306C14.6549 12.9183 14.6549 14.1509 11.7211 15.4536C8.79424 14.1496 8.79424 12.9172 8.79424 11.8306V10.7986L8.79183 8.27214C10.3617 8.49723 11.3687 7.96659 11.7222 7.72789C12.6004 8.26147 13.6439 8.45445 14.6549 8.27027ZM13.0739 6.84906C13.0738 6.91931 13.0598 6.98885 13.0327 7.05368C13.0057 7.11851 12.9661 7.17735 12.9162 7.22681L12.727 7.41593C12.6676 7.47371 12.5953 7.51646 12.516 7.5406C12.3407 7.47232 12.1728 7.38627 12.0149 7.28381C11.9386 7.23468 11.8507 7.2063 11.76 7.20148L9.74366 5.18356L9.74178 5.18089L8.55899 3.9981C8.50871 3.94888 8.46876 3.89011 8.44148 3.82525C8.41421 3.76038 8.40016 3.69072 8.40016 3.62035C8.40016 3.54999 8.41421 3.48033 8.44148 3.41546C8.46876 3.35059 8.50871 3.29183 8.55899 3.2426L8.74546 3.05614C8.95477 2.84921 9.29161 2.84921 9.50095 3.05614L10.4389 3.9941L10.4416 3.99785L11.9486 5.50485L11.9518 5.50726L12.9161 6.47134C12.966 6.52079 13.0056 6.57962 13.0327 6.64444C13.0598 6.70927 13.0738 6.77881 13.0739 6.84906ZM12.1375 4.93797L11.0072 3.80767L12.17 2.64513L13.3003 3.77543L12.1375 4.93797ZM15.298 4.26639C15.0872 4.46773 14.7554 4.46773 14.5446 4.26639L13.8839 3.60572C13.8793 3.59792 13.8744 3.59037 13.869 3.58309C13.8623 3.57671 13.8535 3.57405 13.8464 3.56818L12.3775 2.0993C12.3716 2.09209 12.369 2.08305 12.3623 2.07613C12.3548 2.07058 12.3469 2.06542 12.3389 2.06067L11.7246 1.44504C11.6735 1.39593 11.6328 1.33714 11.6047 1.2721C11.5767 1.20706 11.5619 1.13708 11.5612 1.06625C11.5605 0.995422 11.574 0.925169 11.6008 0.8596C11.6276 0.794032 11.6672 0.734463 11.7172 0.684378C11.7673 0.634294 11.8269 0.594698 11.8925 0.567908C11.958 0.541118 12.0283 0.52767 12.0991 0.528352C12.1699 0.529034 12.2399 0.543832 12.305 0.57188C12.37 0.599928 12.4288 0.640664 12.4779 0.691704L15.298 3.51308C15.506 3.72109 15.506 4.05834 15.298 4.26639Z" fill="#313131"/>
<path fill-rule="evenodd" clip-rule="evenodd" d="M10.0481 11.8021C9.99779 11.754 9.93063 11.7275 9.861 11.7282C9.79137 11.729 9.7248 11.757 9.67556 11.8063C9.62632 11.8555 9.59832 11.9221 9.59755 11.9917C9.59678 12.0613 9.6233 12.1285 9.67144 12.1788L10.737 13.2444C10.7854 13.2928 10.8506 13.3208 10.919 13.3224C10.9875 13.324 11.054 13.2992 11.1046 13.2532L14.0349 10.5893C14.0865 10.5415 14.1172 10.4754 14.1202 10.4051C14.1232 10.3349 14.0984 10.2664 14.0511 10.2144C14.0038 10.1624 13.9379 10.1312 13.8677 10.1275C13.7975 10.1239 13.7288 10.1482 13.6764 10.195L10.9341 12.6882L10.0481 11.8021Z" fill="#313131"/>
</g>
<defs>
<clipPath id="clip0_17_165">
<rect width="16" height="16" fill="white"/>
</clipPath>
</defs>
</svg>
